<?xml version="1.0" encoding="UTF-8"?>
<svg width="95px" height="30px" viewBox="0 0 95 30" version="1.1" xmlns="http://www.w3.org/2000/svg" xmlns:xlink="http://www.w3.org/1999/xlink">
    <!-- Generator: Sketch 42 (36781) - http://www.bohemiancoding.com/sketch -->
    <title>text</title>
    <desc>Created with Sketch.</desc>
    <defs></defs>
    <g id="mobil" stroke="none" stroke-width="1" fill="none" fill-rule="evenodd">
        <g id="m-::-01-main" transform="translate(-113.000000, -15.000000)" fill="#656565">
            <g id="text" transform="translate(113.000000, 15.000000)">
                <path d="M21.6772679,28.3055166 C21.5786095,28.6724677 21.3679939,28.9573131 21.0457304,29.1613815 C20.7243947,29.3643871 20.3340909,29.4669527 19.8788396,29.4669527 C19.562143,29.4669527 19.2871984,29.423907 19.053078,29.3386128 C18.818339,29.2535843 18.6231871,29.1345444 18.4651481,28.9838846 C18.3071091,28.8332247 18.1905128,28.6559934 18.1141221,28.4524564 C18.0380407,28.2486537 18,28.0286425 18,27.792157 L18,25.7562559 C18,25.5500618 18.0380407,25.3491819 18.1141221,25.1530849 C18.1905128,24.9567223 18.305872,24.7829453 18.460509,24.6322854 C18.615146,24.4818912 18.8099886,24.361257 19.0447276,24.2706486 C19.278848,24.1805715 19.5562668,24.134603 19.8788396,24.134603 C20.3696574,24.134603 20.7695487,24.24514 21.0763485,24.4667455 C21.3834576,24.6880853 21.5866506,24.9646937 21.6868554,25.2963048 L20.7290338,25.5673332 C20.712333,25.4926675 20.6826427,25.4201276 20.6421278,25.3491819 C20.6006851,25.2790334 20.5459436,25.2147306 20.4754291,25.1565392 C20.4042961,25.0994107 20.3198643,25.052645 20.2212059,25.0173051 C20.1213104,24.9819651 20.006879,24.9646937 19.8788396,24.9646937 C19.7263675,24.9646937 19.5955446,24.9870137 19.4872987,25.032185 C19.3790528,25.0778879 19.2893633,25.1371421 19.2194674,25.2091506 C19.1492622,25.2827534 19.0969949,25.3643276 19.0623562,25.4546704 C19.0267897,25.5450132 19.0091611,25.6356217 19.0091611,25.7259645 L19.0091611,27.8152741 C19.0091611,27.9255454 19.0267897,28.0315654 19.0623562,28.1320053 C19.0969949,28.2324452 19.1514271,28.3198651 19.2241065,28.3955936 C19.298023,28.4713221 19.388331,28.5303106 19.4965769,28.5728249 C19.6048228,28.6161363 19.7322437,28.6371277 19.8788396,28.6371277 C20.0950221,28.6371277 20.2793494,28.5845163 20.4315122,28.4787621 C20.5827472,28.3732736 20.6804778,28.2276623 20.7206834,28.0408654 L21.6772679,28.3055166 Z M28.0465186,27.8301541 C28.0465186,28.0812539 28.0013646,28.3076423 27.9110565,28.5090535 C27.8207485,28.7101991 27.6908535,28.8821161 27.524464,29.0256017 C27.3577654,29.169353 27.1601393,29.2782957 26.9318951,29.3534928 C26.7033416,29.4292213 26.4525203,29.466687 26.1775758,29.466687 C25.8432506,29.466687 25.5568628,29.420187 25.317794,29.3274528 C25.0771789,29.2347186 24.882027,29.1087702 24.7335754,28.9504046 C24.5835776,28.7915076 24.4740946,28.6084306 24.4038894,28.3995793 C24.3336842,28.1907281 24.2990455,27.9709826 24.2990455,27.7392799 L24.2990455,25.7559901 C24.2990455,25.5707874 24.3324471,25.3813333 24.4001781,25.1902849 C24.4669813,25.0002994 24.5752272,24.8265224 24.725225,24.6702825 C24.8739858,24.5143083 25.0663543,24.3862342 25.3032582,24.2857943 C25.5410899,24.1856201 25.8314982,24.1348687 26.1775758,24.1348687 C26.4989114,24.1348687 26.7772581,24.1824315 27.0113785,24.27862 C27.2448803,24.3737456 27.4400322,24.4980998 27.5946692,24.6516825 C27.7502341,24.8047338 27.8634283,24.9787765 27.9370356,25.1719506 C28.009715,25.3656562 28.0465186,25.5601589 28.0465186,25.7559901 L28.0465186,27.8301541 Z M27.0283885,25.7432359 C27.0283885,25.6776045 27.0150898,25.6002817 26.9891107,25.5125961 C26.9628225,25.4238476 26.9173592,25.3396162 26.8533395,25.2588391 C26.7893197,25.1788592 26.7021045,25.1089764 26.5941678,25.0515822 C26.4859219,24.9931251 26.3464394,24.9646937 26.1775758,24.9646937 C26.0074751,24.9646937 25.8661368,24.9909994 25.7520147,25.0441422 C25.6375834,25.0967536 25.5472753,25.1623849 25.4795443,25.2402392 C25.4115041,25.3183591 25.3638759,25.4023247 25.3338763,25.4937304 C25.3057323,25.5843389 25.2899594,25.6701645 25.2899594,25.7506759 L25.2998561,27.760537 C25.2998561,28.0126997 25.3663501,28.2239423 25.5018121,28.3953279 C25.6363463,28.5664478 25.8636626,28.6522734 26.1862354,28.6522734 C26.4141704,28.6522734 26.6121057,28.5853135 26.7784951,28.451925 C26.9448846,28.3185365 27.0283885,28.1357253 27.0283885,27.9040226 L27.0283885,25.7432359 Z M34.0008163,29.4218345 L32.5614551,27.1667192 L31.9212579,26.0881859 L31.8949696,26.0953601 L31.8949696,29.4218345 L30.8848807,29.4218345 L30.8848807,24.1726532 L31.8071358,24.1726532 L33.1583539,26.3145742 L33.8783438,27.4906247 L33.9139103,27.4831847 L33.9139103,24.1726532 L34.9144117,24.1726532 L34.9144117,29.4218345 L34.0008163,29.4218345 Z M41.5466071,27.9282292 C41.5466071,28.4062488 41.3777435,28.7817027 41.0375421,29.0556539 C40.6982685,29.3298708 40.2192031,29.4669793 39.5981809,29.4669793 C39.1067445,29.4669793 38.6997399,29.3835451 38.3784042,29.2172081 C38.0561407,29.0495425 37.8053195,28.8337827 37.6231571,28.5691315 L38.4489187,28.0565691 C38.5831436,28.2375203 38.7439661,28.3820688 38.9316954,28.4902144 C39.1184969,28.5980943 39.3470504,28.6525657 39.6158095,28.6525657 C39.938073,28.6525657 40.1644616,28.5850743 40.2962123,28.4516859 C40.4285816,28.3185631 40.4938384,28.1535547 40.4938384,27.957192 C40.4938384,27.8368235 40.4678594,27.7337265 40.4152828,27.6476351 C40.3617784,27.5615438 40.289099,27.4876752 40.1950797,27.4244353 C40.1013697,27.3619925 39.9872476,27.3077868 39.8527134,27.2623497 C39.7181792,27.2169126 39.5718926,27.1738669 39.4135443,27.1340098 C39.1209711,27.0534985 38.8723148,26.9679385 38.6678847,26.8770643 C38.4631453,26.7867216 38.2955188,26.6814988 38.1634588,26.5637875 C38.0310895,26.4450133 37.9361424,26.3094991 37.8779989,26.1556507 C37.8195461,26.0023337 37.7898558,25.8269624 37.7898558,25.6308654 C37.7898558,25.4145742 37.8337727,25.2144915 37.9219158,25.0300859 C38.0097496,24.8459461 38.1359334,24.6878462 38.2989208,24.5544577 C38.4631453,24.4208036 38.6579879,24.3174408 38.8831394,24.2446351 C39.1079816,24.1712981 39.361277,24.1346295 39.6420978,24.1346295 C40.0988955,24.1346295 40.4690965,24.1999952 40.7533193,24.3312579 C41.036305,24.4617235 41.2636214,24.6400177 41.432485,24.8669375 L40.6698153,25.4166999 C40.5343533,25.2562086 40.3818812,25.1379658 40.2130176,25.0622373 C40.0429169,24.9870402 39.8465279,24.9493088 39.625397,24.9493088 C39.361277,24.9493088 39.1590118,25.0109545 39.0189107,25.1339801 C38.878191,25.2575371 38.8082951,25.4116513 38.8082951,25.5976511 C38.8082951,25.7039368 38.8401503,25.7953424 38.9044793,25.8734623 C38.9697361,25.9515823 39.0569514,26.0201365 39.1685993,26.0807193 C39.2793194,26.1410364 39.4113794,26.1955078 39.5635422,26.2430706 C39.7160143,26.2906334 39.8765275,26.3366019 40.0463189,26.3823048 C40.3333252,26.4577676 40.5711569,26.5443903 40.7613604,26.6424388 C40.9518732,26.7404873 41.1052731,26.8526186 41.2218694,26.9780357 C41.3397028,27.1037184 41.4228975,27.2442812 41.4726906,27.3999896 C41.5215559,27.5564952 41.5466071,27.7316008 41.5466071,27.9282292 Z M48.0030112,24.1724141 L48.0030112,27.8302338 C48.0030112,28.0813336 47.9578572,28.3093163 47.8669306,28.5125875 C47.7769319,28.7166559 47.6485832,28.8883072 47.4806474,29.0294014 C47.3139487,29.1702298 47.1166319,29.2783754 46.8883877,29.3535725 C46.6610713,29.4290353 46.4087037,29.4667667 46.1337591,29.4667667 C45.8173718,29.4667667 45.5414994,29.4223925 45.3049048,29.3344411 C45.0667638,29.2467555 44.8706841,29.1269184 44.7157378,28.9762586 C44.5611008,28.8255987 44.4435767,28.6483674 44.3647118,28.4445647 C44.2864655,28.2412935 44.2459506,28.0236737 44.2459506,27.7922367 L44.2459506,24.1724141 L45.2473798,24.1724141 L45.2473798,27.8153538 C45.2473798,28.0412108 45.3212963,28.2349163 45.4712942,28.395939 C45.6194365,28.5569618 45.8411859,28.6372074 46.1337591,28.6372074 C46.3790134,28.6372074 46.5825157,28.567856 46.744266,28.4296847 C46.9047792,28.2915134 46.985809,28.1044507 46.985809,27.8679652 L46.985809,24.1724141 L48.0030112,24.1724141 Z M50.9115167,29.4218345 L50.9115167,24.1726532 L51.9117088,24.1726532 L51.9117088,28.6071552 L54.2730158,28.6071552 L54.2730158,29.4218345 L50.9115167,29.4218345 Z M58.3920816,24.9568551 L58.3920816,29.4216485 L57.3900339,29.4216485 L57.3900339,24.9568551 L56.0484033,24.9568551 L56.0484033,24.1724672 L59.743609,24.1724672 L59.743609,24.9568551 L58.3920816,24.9568551 Z M62.3708608,29.4215688 L62.3708608,24.1723875 L63.3812589,24.1723875 L63.3812589,29.4215688 L62.3708608,29.4215688 Z M69.4543488,29.4218345 L68.0146783,27.1667192 L67.3744811,26.0881859 L67.3481929,26.0953601 L67.3481929,29.4218345 L66.3387225,29.4218345 L66.3387225,24.1726532 L67.2606683,24.1726532 L68.6121957,26.3145742 L69.331567,27.4906247 L69.3671335,27.4831847 L69.3671335,24.1726532 L70.3682535,24.1726532 L70.3682535,29.4218345 L69.4543488,29.4218345 Z M75.0968056,24.134789 C75.3417506,24.134789 75.5653557,24.1637518 75.7676209,24.2214117 C75.9698861,24.2793374 76.1461723,24.361443 76.2980258,24.4669315 C76.4504979,24.5718886 76.578228,24.6965085 76.6802885,24.8399941 C76.7823489,24.9834797 76.8571932,25.1375938 76.9051307,25.3039308 L75.9476184,25.5598135 C75.9290619,25.4848821 75.900918,25.4118107 75.8594753,25.3413965 C75.8186511,25.2709823 75.7623632,25.2088052 75.6927766,25.1532709 C75.6225714,25.097471 75.5378303,25.052831 75.4382441,25.0172253 C75.3395857,24.9818854 75.2254636,24.9648797 75.0968056,24.9648797 C74.9443335,24.9648797 74.8132013,24.9871997 74.7049554,25.0321053 C74.5973281,25.0778082 74.5082571,25.1370624 74.4377427,25.2093366 C74.3675375,25.2826737 74.3152702,25.3645136 74.2787758,25.4545907 C74.2453742,25.5451992 74.2268178,25.6352762 74.2268178,25.7258847 L74.2268178,27.8229001 C74.2268178,27.9334372 74.2453742,28.0389256 74.2787758,28.1385684 C74.3152702,28.2398055 74.3687746,28.3277568 74.4426911,28.4032196 C74.5153705,28.4789481 74.6056785,28.5392652 74.7148522,28.5847023 C74.8234074,28.6301394 74.9499004,28.6521937 75.0968056,28.6521937 C75.3878324,28.6521937 75.6095819,28.5809823 75.7595798,28.4369653 C75.9083406,28.2937454 75.9834941,28.1197027 75.9834941,27.9135086 L75.9834941,27.2949263 L75.0695895,27.2949263 L75.0695895,26.5482698 L76.9836863,26.5482698 L76.9836863,27.792343 C76.9836863,28.0442399 76.9397694,28.2724883 76.8516263,28.4789481 C76.7634832,28.6851422 76.6397736,28.8607792 76.4789511,29.0063905 C76.3172008,29.152799 76.119884,29.2659932 75.8866914,29.3457074 C75.6522617,29.4264845 75.3878324,29.4666073 75.0968056,29.4666073 C74.7804183,29.4666073 74.505783,29.4238273 74.271044,29.3387988 C74.0369236,29.2537703 73.8430088,29.1344647 73.6865161,28.9840706 C73.5318791,28.8334107 73.4165199,28.6561794 73.3407478,28.4526424 C73.2643571,28.248574 73.226935,28.0285628 73.226935,27.792343 L73.226935,25.7564419 C73.226935,25.5502478 73.2637386,25.3488365 73.3361087,25.1532709 C73.4097159,24.9569083 73.5241473,24.7828655 73.6787843,24.6324714 C73.8334213,24.4820772 74.0285732,24.361443 74.2630029,24.2708346 C74.4958862,24.1802261 74.7745421,24.134789 75.0968056,24.134789 Z" id="consulting"></path>
                <path d="M10.6297376,0.140323595 L14.32216,0.140323595 L14.32216,19.5098157 L10.6297376,19.5098157 L10.6297376,11.1323828 L4.28065163,11.1323828 L4.28065163,19.5098157 L0.554518446,19.5098157 L0.554518446,0.140323595 L4.28065163,0.140323595 L4.28065163,8.26639099 L10.6297376,8.26639099 L10.6297376,0.140323595 Z M21.642088,19.5098689 L21.642088,0.140376738 L34.1788189,0.140376738 L34.1788189,3.08953709 L25.3357474,3.08953709 L25.3357474,8.26644413 L32.948527,8.26644413 L32.948527,11.1606017 L25.3357474,11.1606017 L25.3357474,16.5041114 L34.1788189,16.5041114 L34.1788189,19.5098689 L21.642088,19.5098689 Z M49.7916201,15.3352618 L43.5399554,15.3352618 C43.4960385,15.502396 43.4100603,15.7808643 43.2804745,16.1704011 C43.1508887,16.5596722 43.0163545,16.977109 42.8762534,17.4224458 C42.735843,17.8677826 42.6062572,18.2854851 42.4868774,18.6747562 C42.3681162,19.0645587 42.2765711,19.343027 42.2122421,19.5098954 L38.3565231,19.5098954 L44.8676687,0.140137595 L48.4317423,0.140137595 L54.9744338,19.5098954 L51.0546951,19.5098954 L49.7916201,15.3352618 Z M45.515907,8.59994184 L44.349944,12.4966385 L48.949467,12.4966385 L47.8153592,8.62810754 C47.7726794,8.46097339 47.7024742,8.18250506 47.6050529,7.79323396 C47.5085594,7.40316572 47.4003135,6.99529464 47.281243,6.56855785 C47.1624818,6.14208679 47.0492875,5.73820142 46.9410416,5.3579646 C46.8327957,4.97799349 46.768776,4.70430801 46.7471268,4.53690815 L46.5853765,4.53690815 L45.515907,8.59994184 Z M67.3480537,0.140243881 C68.8588572,0.140243881 70.1553338,0.380715105 71.2356279,0.863517553 C72.3146849,1.34578857 73.1033336,2.14346218 73.5994091,3.25653838 C73.9015698,3.94340923 74.0803302,4.79209993 74.1347624,5.80287622 C74.1885761,6.81471536 74.2157922,7.96047439 74.2157922,9.24068473 C74.2157922,10.8176977 74.2040398,12.1669937 74.1826999,13.2893699 C74.16136,14.4128089 73.9779605,15.3723024 73.63312,16.1702417 C73.3513714,16.8196469 72.9845724,17.3579836 72.5311767,17.7839232 C72.0783996,18.2111914 71.5591285,18.5494454 70.9764563,18.8000138 C70.3931655,19.0503164 69.7560611,19.2315334 69.0648337,19.3431333 C68.3736063,19.4539361 67.6607297,19.509736 66.9271318,19.509736 L60.4481507,19.509736 L60.4481507,0.140243881 L67.3480537,0.140243881 Z M70.4899683,7.34800348 C70.4899683,6.03059317 70.2199721,4.99165119 69.6809075,4.23038041 C69.1409151,3.47017248 68.1793822,3.08966995 66.7972367,3.08966995 L64.1736653,3.08966995 L64.1736653,16.5597785 L66.8294012,16.5597785 C68.2115467,16.5597785 69.1668941,16.2494245 69.6963712,15.6271222 C70.2261576,15.0058827 70.4899683,14.1383263 70.4899683,13.0249844 L70.4899683,7.34800348 Z M94.4291678,13.9991453 C94.4291678,15.7624238 93.8019601,17.1489197 92.5497097,18.1602274 C91.2968407,19.1715352 89.5262471,19.6766576 87.2376194,19.6766576 C85.4234181,19.6766576 83.9222021,19.368695 82.73459,18.7535669 C81.5463592,18.1376418 80.6185372,17.341031 79.9483405,16.3645318 L82.9940708,14.4721163 C83.4904556,15.1403872 84.0839524,15.6742067 84.7748706,16.0725121 C85.4664072,16.4716146 86.3085603,16.6714316 87.3019484,16.6714316 C88.4892513,16.6714316 89.3267653,16.4253803 89.8132533,15.9316836 C90.2988135,15.4401126 90.5415936,14.8316274 90.5415936,14.1059623 C90.5415936,13.6608913 90.4447908,13.2795916 90.2496389,12.9636576 C90.0560334,12.6479893 89.7860372,12.3737724 89.4396503,12.1412726 C89.0945005,11.9087728 88.6732694,11.7086901 88.1759568,11.5418216 C87.6804998,11.3746875 87.1398889,11.2160562 86.5569074,11.067522 C85.4769225,10.7707194 84.5599251,10.4550511 83.8034409,10.1199857 C83.0478845,9.78571741 82.426553,9.39963488 81.9413021,8.96333239 C81.4545049,8.52623276 81.1037881,8.02483033 80.8888427,7.45806224 C80.6717324,6.89049701 80.5650328,6.24534327 80.5650328,5.52047532 C80.5650328,4.72147314 80.7267831,3.98252233 81.0502837,3.30415434 C81.3737843,2.62552063 81.8380046,2.04041827 82.4435631,1.54831583 C83.0478845,1.05541625 83.766328,0.674116571 84.5979658,0.405213942 C85.4280572,0.134717029 86.3633018,0 87.399679,0 C89.0842945,0 90.4500485,0.242331223 91.4966317,0.7238051 C92.544452,1.20660755 93.3810382,1.86504699 94.0079366,2.70018628 L91.1898319,4.73157027 C90.69221,4.13823077 90.1308777,3.70192829 89.5049071,3.42399138 C88.8780087,3.14499162 88.1546169,3.00655459 87.3344222,3.00655459 C86.3633018,3.00655459 85.6176422,3.23320868 85.0996083,3.68784544 C84.581265,4.1424822 84.3220934,4.71350171 84.3220934,5.39957542 C84.3220934,5.78937794 84.4411639,6.12816337 84.6793049,6.41566598 C84.9155902,6.7031686 85.2403279,6.9582541 85.6507345,7.18118819 C86.0602133,7.40332515 86.546392,7.60287641 87.1083429,7.77957626 C87.6693659,7.95574468 88.263172,8.12686453 88.8900704,8.29346725 C89.9474782,8.57273273 90.8279813,8.89212103 91.529724,9.25428929 C92.2308482,9.61592613 92.7980567,10.0288458 93.2298032,10.4922511 C93.661859,10.9567193 93.9698959,11.476456 94.1529861,12.0509298 C94.3363856,12.6264664 94.4291678,13.2756059 94.4291678,13.9991453 Z" id="heads-::-text"></path>
            </g>
        </g>
    </g>
</svg>