<?xml version="1.0" encoding="UTF-8"?>
<svg width="7px" height="12px" viewBox="0 0 7 12" version="1.1" xmlns="http://www.w3.org/2000/svg" xmlns:xlink="http://www.w3.org/1999/xlink">
    <!-- Generator: Sketch 42 (36781) - http://www.bohemiancoding.com/sketch -->
    <title></title>
    <desc>Created with Sketch.</desc>
    <defs></defs>
    <g id="site" stroke="none" stroke-width="1" fill="none" fill-rule="evenodd">
        <g id="01-main" transform="translate(-179.000000, -203.000000)" fill="#B4894B">
            <g id="left-menu">
                <g id="menu" transform="translate(30.000000, 180.000000)">
                    <path d="M149.921875,34.1974051 C149.871745,34.1974051 149.823405,34.1884533 149.776855,34.1705496 C149.730306,34.1526459 149.689128,34.1257907 149.65332,34.0899832 C149.581705,34.0183683 149.545898,33.9324316 149.545898,33.8321707 C149.545898,33.7319098 149.581705,33.6459731 149.65332,33.5743582 L154.5625,28.6651785 L149.728516,23.8419363 C149.656901,23.7703214 149.621094,23.6825944 149.621094,23.5787527 C149.621094,23.4749111 149.656901,23.3871841 149.728516,23.3155691 C149.800131,23.2439542 149.887858,23.2081473 149.991699,23.2081473 C150.095541,23.2081473 150.183268,23.2439542 150.254883,23.3155691 L155.335938,28.407366 C155.407552,28.478981 155.443359,28.5649176 155.443359,28.6651785 C155.443359,28.7654394 155.407552,28.8513761 155.335938,28.922991 L150.179688,34.0899832 C150.14388,34.1257907 150.102702,34.1526459 150.056152,34.1705496 C150.009603,34.1884533 149.964844,34.1974051 149.921875,34.1974051 Z" id=""></path>
                </g>
            </g>
        </g>
    </g>
</svg>