<?xml version="1.0" encoding="UTF-8"?>
<svg width="140px" height="25px" viewBox="0 0 140 25" version="1.1" xmlns="http://www.w3.org/2000/svg" xmlns:xlink="http://www.w3.org/1999/xlink">
    <!-- Generator: Sketch 42 (36781) - http://www.bohemiancoding.com/sketch -->
    <title>Group 2</title>
    <desc>Created with Sketch.</desc>
    <defs></defs>
    <g id="site" stroke="none" stroke-width="1" fill="none" fill-rule="evenodd">
        <g id="01-main" transform="translate(-570.000000, -1278.000000)">
            <g id="clienty" transform="translate(275.000000, 1097.000000)">
                <g id="Group-8">
                    <g id="Group-2" transform="translate(275.000000, 123.000000)">
                        <rect id="Rectangle-4-Copy-13" x="0" y="0" width="180" height="141"></rect>
                        <g id="logo-::-2" transform="translate(20.000000, 58.000000)" fill="#656565">
                            <path d="M42.6671197,18.6395098 L42.0262746,18.6395098 L42.0262746,12.6635294 L42.6671197,12.6635294 C45.3537394,12.6635294 46.7335282,13.4380392 46.7335282,15.6586275 C46.7335282,18.2816667 44.7138803,18.6395098 42.6671197,18.6395098 M42.0262746,10.6860784 L42.0262746,6.26892157 L48.2232465,6.26892157 L48.2232465,4.29098039 L37.868669,4.29098039 L38.9107817,6.08656863 L38.9107817,20.6002941 L43.4987394,20.6002941 C45.9945845,20.6002941 49.8465563,19.6404902 49.8465563,15.6787255 C49.8465563,10.5414706 45.3083873,10.6860784 42.0262746,10.6860784" id="Fill-1"></path>
                            <path d="M88.1607113,18.6395098 L87.5198662,18.6395098 L87.5198662,12.6635294 L88.1607113,12.6635294 C90.847331,12.6635294 92.2271197,13.4380392 92.2271197,15.6586275 C92.2271197,18.2816667 90.2074718,18.6395098 88.1607113,18.6395098 M87.5198662,10.6860784 L87.5198662,6.26892157 L93.716838,6.26892157 L93.716838,4.29098039 L83.3627535,4.29098039 L84.4043732,6.08656863 L84.4043732,20.6002941 L88.992331,20.6002941 C91.4881761,20.6002941 95.3401479,19.6404902 95.3401479,15.6787255 C95.3401479,10.5414706 90.8019789,10.6860784 87.5198662,10.6860784" id="Fill-3"></path>
                            <polygon id="Fill-5" points="26.7263451 24.6494118 33.8816268 12.3263725 26.7263451 0.0018627451 24.1181056 0.0018627451 31.2724014 12.3263725 24.1181056 24.6494118"></polygon>
                            <polygon id="Fill-7" points="77.7720211 4.29073529 77.7720211 10.6730882 71.8654014 10.6730882 71.8654014 4.29073529 67.7043451 4.29073529 68.7518803 6.08681373 68.7518803 20.600049 71.8654014 20.600049 71.8654014 12.704951 77.7720211 12.704951 77.7720211 20.600049 80.8850493 20.600049 80.8850493 4.29073529"></polygon>
                            <polygon id="Fill-9" points="121.271204 4.29073529 121.271204 10.6730882 115.364585 10.6730882 115.364585 4.29073529 111.203528 4.29073529 112.251063 6.08681373 112.251063 20.600049 115.364585 20.600049 115.364585 12.704951 121.271204 12.704951 121.271204 20.600049 124.384725 20.600049 124.384725 4.29073529"></polygon>
                            <polygon id="Fill-11" points="133.598056 11.822451 139.638268 4.29058824 136.356648 4.29058824 131.035169 10.8415686 131.035169 4.29058824 126.877563 4.29058824 127.921648 6.08666667 127.921648 20.599902 131.035169 20.599902 131.035169 12.5366667 136.454254 20.599902 139.735873 20.599902"></polygon>
                            <path d="M21.5088803,24.6494118 C20.5643732,17.6940196 14.5601479,12.3273529 7.31810563,12.3268627 C10.0481056,12.3268627 11.8099366,10.4023529 11.8119085,7.82931373 C11.8119085,6.38470588 10.2940915,2.16166667 7.14014789,0.0018627451 L0.000147887324,12.3268627 L7.15592254,24.6518627 L21.5088803,24.6494118 Z" id="Fill-18"></path>
                            <polygon id="Fill-14" points="61.2738592 4.29073529 54.8787183 16.3956373 54.8787183 4.29073529 50.9424507 4.29073529 51.9899859 6.08681373 51.9899859 20.600049 55.4283662 20.600049 62.1325915 7.90691176 62.1325915 20.600049 65.1997746 20.600049 65.1997746 4.29073529"></polygon>
                            <path d="M28.6235915,12.3270098 L21.4678169,0.00200980392 C21.4678169,0.00200980392 7.14049296,-0.00240196078 7.14,0.00200980392 C12.4028169,1.04808824 16.3671831,5.67946078 16.3671831,11.2211275 C16.3671831,11.6064216 16.3474648,11.9868137 16.31,12.3618137 C19.6064085,14.3794608 21.7995775,17.9495588 21.7995775,22.0206373 C21.7995775,22.9113235 21.7073944,23.8172059 21.5087324,24.6495588 L28.6235915,12.3270098 Z" id="Fill-16"></path>
                            <path d="M100.848606,14.5781373 C101.93262,10.9526471 103.10438,7.03401961 103.10438,7.03352941 L103.15269,7.03352941 C103.15269,7.03401961 104.324451,10.9526471 105.408465,14.5781373 L100.848606,14.5781373 Z M107.208746,20.5992157 L110.315859,20.6001961 L105.137338,4.29088235 L101.119732,4.29088235 L99.5412817,4.29088235 L100.550859,6.08303922 L95.9412113,20.6001961 L99.0483239,20.5992157 C99.0483239,20.5992157 99.5861408,18.7987255 100.270366,16.5114706 L105.986704,16.5114706 C106.67093,18.7987255 107.208746,20.5992157 107.208746,20.5992157 L107.208746,20.5992157 Z" id="Fill-21"></path>
                        </g>
                    </g>
                </g>
            </g>
        </g>
    </g>
</svg>