<?xml version="1.0" encoding="UTF-8"?>
<svg width="90px" height="79px" viewBox="0 0 90 79" version="1.1" xmlns="http://www.w3.org/2000/svg" xmlns:xlink="http://www.w3.org/1999/xlink">
    <!-- Generator: Sketch 42 (36781) - http://www.bohemiancoding.com/sketch -->
    <title>Group</title>
    <desc>Created with Sketch.</desc>
    <defs></defs>
    <g id="site" stroke="none" stroke-width="1" fill="none" fill-rule="evenodd">
        <g id="01-main" transform="translate(-405.000000, -1251.000000)">
            <g id="clienty" transform="translate(275.000000, 1097.000000)">
                <g id="Group-8">
                    <g id="Group" transform="translate(85.000000, 123.000000)">
                        <rect id="Rectangle-4-Copy-12" x="0" y="0" width="180" height="141"></rect>
                        <g id="logo-::-1" transform="translate(45.000000, 31.000000)" fill="#656565">
                            <path d="M52.4822829,70.7109038 C51.7130792,70.7109038 51.0889293,71.3394492 51.0889293,72.1066599 C51.0889293,72.8836751 51.7130792,73.5041667 52.4822829,73.5041667 C53.2462564,73.5041667 53.8704063,72.8836751 53.8704063,72.1066599 C53.8704063,71.3394492 53.2462564,70.7109038 52.4822829,70.7109038 L52.4822829,70.7109038 Z M4.39728534,72.0369771 C4.39728534,72.0369771 5.09187005,69.7076822 5.19821961,69.3410599 C5.47577455,68.392464 5.89594251,66.8986619 5.89594251,66.8986619 L5.96533124,66.8986619 C5.96533124,66.8986619 6.3502818,68.4484904 6.60273127,69.3281038 C6.70071234,69.6712651 7.36286915,72.0369771 7.36286915,72.0369771 L4.39728534,72.0369771 Z M8.61918879,76.2711673 L11.1290386,76.2711673 L7.33706631,64.6383495 C6.94095776,64.5028358 6.44128914,64.4180959 5.91616636,64.4180959 C5.34013527,64.4180959 5.13789675,64.4961826 4.68634695,64.6383495 L0.666333333,76.2711673 L3.07122828,76.2711673 C3.07122828,76.2711673 3.39202042,75.253589 3.78638553,73.9894949 L7.94413055,73.9894949 C8.31583101,75.2514881 8.61918879,76.2711673 8.61918879,76.2711673 L8.61918879,76.2711673 Z M89.8012175,76.2711673 C89.8012175,76.2711673 88.6174248,73.7254708 88.3262711,73.1490998 C87.9964131,72.4946422 87.6937527,72.0432801 87.0267143,71.8853558 L87.0267143,71.8475381 C87.4733824,71.7613976 87.8286946,71.4865184 88.2150399,70.6562781 C88.5919707,69.8428458 88.7011097,69.6691641 88.9176444,69.4758733 C89.1341791,69.279431 89.4263789,69.3547163 89.4263789,69.3547163 L89.5348206,67.841305 C89.2241404,67.7996354 88.8778941,67.7982347 88.5204898,67.8185443 C87.9298139,67.8549614 87.6233179,68.0195388 87.3394866,68.3171787 C87.1135374,68.5423345 86.9573255,68.879543 86.7651989,69.2713772 C86.5598222,69.6940258 86.3994262,70.030534 86.19126,70.4612364 C85.981699,70.9003428 85.8795337,71.0932835 85.320937,71.0932835 L84.9530721,71.0932835 L84.9530721,67.947755 L82.76785,67.947755 L82.76785,76.2711673 L84.9530721,76.2711673 L84.9530721,72.8735203 L85.2494561,72.8679177 C85.8694218,72.8679177 85.9768174,73.0198891 86.3077215,73.6817002 C86.6958102,74.4678197 87.4332834,76.2711673 87.4332834,76.2711673 L89.8012175,76.2711673 Z M80.8647158,76.2711673 L80.8647158,67.947755 L78.6868161,67.947755 L78.6868161,71.0967852 L76.2198549,71.0967852 L76.2198549,67.947755 L74.0450934,67.947755 L74.0450934,76.2711673 L76.2198549,76.2711673 L76.2198549,72.8756213 L78.6868161,72.8756213 L78.6868161,76.2711673 L80.8647158,76.2711673 Z M20.8807708,67.8752709 L20.8717049,75.8348623 C21.9045161,76.2711673 23.04019,76.4686602 24.047547,76.4686602 C26.3614347,76.4686602 27.6006686,75.2679458 27.6006686,73.2884654 C27.6006686,71.4994745 26.5043964,70.3908534 24.4562083,70.3908534 C23.9342237,70.3908534 23.6298199,70.4612364 23.0597165,70.5988511 L23.0597165,67.8752709 L20.8807708,67.8752709 Z M25.3481499,73.3903633 C25.3481499,74.2111491 25.0590883,74.7759645 24.0109349,74.7759645 C23.6584122,74.7759645 23.5154505,74.7759645 23.0576244,74.6467538 L23.0576244,72.2456752 C23.6256356,72.134673 23.6748005,72.1164645 24.0109349,72.1164645 C25.0109695,72.1164645 25.3481499,72.6052942 25.3481499,73.3903633 L25.3481499,73.3903633 Z M72.9048866,75.4731422 C72.3257173,74.5970304 72.1785713,74.0777363 72.1785713,72.9747179 L72.1785713,70.7322638 C72.1785713,69.5210445 72.0387478,69.0742345 71.7190017,68.6330271 C71.2754718,68.007283 70.5421828,67.7418582 69.1784675,67.7418582 C68.2213214,67.7418582 67.2774254,67.8451568 66.3792074,68.0731139 L66.7041838,69.6810697 C67.3088073,69.5952794 67.9524837,69.5210445 68.4162375,69.5210445 C69.8535257,69.5210445 70.0191521,69.7328941 70.0191521,70.8163033 L70.0191521,71.2224943 C69.699406,71.1356535 69.3399096,71.0719235 68.9228799,71.0719235 C66.7460263,71.0719235 65.5977996,72.1395753 65.5977996,73.9019537 C65.5977996,75.5557811 66.8248296,76.4599061 68.3224407,76.4599061 C68.8820835,76.4599061 69.4584633,76.3538062 69.921171,76.1685691 C70.1990747,76.0474122 70.3204178,75.9777294 70.6809602,75.7382168 C70.898541,76.0582673 71.330913,76.3818194 71.5076974,76.4399467 L72.9048866,75.4731422 Z M70.1356136,74.5115903 C69.6533793,74.6810699 69.3399096,74.7185375 68.9629789,74.7185375 C68.1812224,74.7185375 67.7401332,74.408992 67.7401332,73.606765 C67.7401332,72.7730231 68.3018681,72.4897399 69.3786139,72.4897399 C69.6390832,72.4897399 69.9005985,72.5293085 70.0191521,72.5723788 L70.0191521,73.1690592 C70.0191521,73.8158132 70.0557643,74.2377616 70.1356136,74.5115903 L70.1356136,74.5115903 Z M48.6812448,75.4731422 C48.1080032,74.5970304 47.9598112,74.0777363 47.9598112,72.9747179 L47.9598112,70.7322638 C47.9598112,69.5210445 47.8178956,69.0742345 47.4981495,68.6330271 C47.0549682,68.007283 46.3223766,67.7418582 44.9617995,67.7418582 C44.0036073,67.7418582 43.0586653,67.8451568 42.1576578,68.0731139 L42.4812394,69.6810697 C43.0910932,69.5952794 43.7316314,69.5210445 44.1915497,69.5210445 C45.6337195,69.5210445 45.801438,69.7328941 45.801438,70.8163033 L45.801438,71.2224943 C45.4806459,71.1356535 45.1190574,71.0719235 44.7013302,71.0719235 C42.5223845,71.0719235 41.375204,72.1395753 41.375204,73.9019537 C41.375204,75.5557811 42.5997931,76.4599061 44.0994963,76.4599061 C44.6591391,76.4599061 45.2397031,76.3538062 45.7003188,76.1685691 C45.9810119,76.0474122 46.1006116,75.9777294 46.4632462,75.7382168 C46.6748992,76.0582673 47.1111068,76.3818194 47.2878912,76.4399467 L48.6812448,75.4731422 Z M45.9566038,74.5115903 C45.4764617,74.6810699 45.1608998,74.7185375 44.7839691,74.7185375 C44.0046534,74.7185375 43.5621695,74.408992 43.5621695,73.606765 C43.5621695,72.7730231 44.1211149,72.4897399 45.1996041,72.4897399 C45.4611194,72.4897399 45.7215887,72.5293085 45.8443266,72.5723788 L45.8443266,73.1690592 C45.8443266,73.8158132 45.8781492,74.2377616 45.9566038,74.5115903 L45.9566038,74.5115903 Z M19.2004476,76.2711673 L19.2004476,68.2509975 C18.0041022,67.89453 17.0846143,67.7418582 15.8844333,67.7418582 C14.6852983,67.7418582 13.7881264,67.89453 12.5910836,68.2509975 L12.5910836,72.3584282 C12.5910836,73.4747529 12.5715571,73.8116113 12.4498653,74.1701798 C12.3327064,74.4867286 12.1712643,74.868408 11.7298264,75.1590446 L12.325384,76.4399467 C14.0743985,75.9469149 14.7320224,75.1797043 14.7320224,72.7530637 L14.7320224,69.7328941 C15.3104943,69.6481543 15.4248637,69.6281949 15.8844333,69.6281949 C16.3481871,69.6281949 16.4461682,69.6481543 17.0204559,69.7328941 L17.0204559,76.2711673 L19.2004476,76.2711673 Z M35.5664255,79 L35.5664255,76.0092442 C35.8432831,76.1706701 36.3928139,76.4133342 37.3217164,76.4133342 C39.1645277,76.4133342 40.5240587,74.8764618 40.5240587,72.0607883 C40.5240587,69.0290633 39.1746396,67.7359054 36.9538515,67.7359054 C36.3910705,67.7359054 36.0221595,67.7933324 35.5664255,68.009384 L35.5664255,64.4387556 L33.3968943,64.4387556 L33.3968943,68.009384 C32.9390682,67.7933324 32.5732954,67.7359054 32.0084223,67.7359054 C29.7876341,67.7359054 28.438215,69.0840391 28.438215,72.1122625 C28.438215,74.9293366 29.6600147,76.4133342 31.6409061,76.4133342 C32.5722493,76.4133342 33.1210828,76.1706701 33.3968943,76.0092442 L33.3968943,79 L35.5664255,79 L35.5664255,79 Z M30.6764376,72.1122625 C30.6764376,70.4426777 31.1768036,69.5599128 32.1761408,69.5599128 C32.5970061,69.5599128 32.8759558,69.5564111 33.3968943,69.8081795 L33.3968943,74.4019888 C32.9237259,74.557812 32.703007,74.579172 32.2803982,74.579172 C31.1412375,74.579172 30.6764376,73.6449329 30.6764376,72.1122625 L30.6764376,72.1122625 Z M38.2879283,72.0607883 C38.2879283,73.5924082 37.6833049,74.579172 36.6839677,74.579172 C36.2620563,74.579172 36.0395939,74.557812 35.5664255,74.4019888 L35.5664255,69.8081795 C36.0866667,69.5564111 36.3673598,69.5599128 36.7882251,69.5599128 C37.7893058,69.5599128 38.2879283,70.3887524 38.2879283,72.0607883 L38.2879283,72.0607883 Z M64.768273,72.6585193 C64.768273,70.5967501 63.5618157,69.1761324 61.0334855,69.1761324 C60.4156119,69.1761324 59.9846347,69.2363607 59.3123659,69.3956856 L59.3071356,66.4269902 C59.7231193,66.3674622 60.44002,66.3166883 61.2214278,66.3166883 C61.9651774,66.3166883 62.9080273,66.3552065 63.7316263,66.4581548 L63.788811,64.7381464 C62.8550269,64.5269971 61.4902656,64.3977864 60.4351384,64.3977864 C59.3908205,64.3977864 57.7718663,64.6590092 57.0016165,64.8677073 L56.9995244,75.8401147 C58.2049357,76.2792211 59.3737349,76.4830169 60.5829817,76.4830169 C63.3330769,76.4830169 64.768273,75.0175781 64.768273,72.6585193 L64.768273,72.6585193 Z M62.4505499,72.8262481 C62.4505499,73.9383708 61.8354658,74.6695145 60.7088578,74.6695145 C60.2621896,74.6695145 59.8946734,74.6709152 59.3123659,74.5108899 L59.3123659,71.1437072 C59.5665588,71.1013373 60.1010962,71.0186985 60.7088578,71.0397084 C61.8539462,71.0827786 62.4505499,71.6244832 62.4505499,72.8262481 L62.4505499,72.8262481 Z M45.2090187,7.35247287 L41.1063662,19.7202862 L49.3758295,19.7202862 L45.260973,7.35247287 L45.2090187,7.35247287 Z M30.8336954,40.2854527 C30.582292,40.2854527 30.3779614,40.4969521 30.3779614,40.7581749 L30.3779614,46.0179972 C30.3779614,46.2806206 30.582292,46.4907194 30.8336954,46.4907194 L59.6352502,46.4907194 C59.887351,46.4907194 60.0906355,46.2806206 60.0906355,46.0179972 L60.0906355,40.7581749 C60.0906355,40.4969521 59.887351,40.2854527 59.6352502,40.2854527 L30.8336954,40.2854527 L30.8336954,40.2854527 Z M45.2344728,6.69491526e-05 C48.3859069,6.69491526e-05 49.3768756,2.26703251 50.2043101,4.53539873 C50.5557867,5.49660053 58.7433086,28.0111332 58.9884356,28.6862506 C59.0560809,28.8739388 59.0121463,29.1859354 58.7209926,29.295537 C58.4308849,29.406189 54.1769023,31.06772 53.9429332,31.1570119 C53.7072207,31.2445531 53.4425672,31.1132414 53.3557441,30.8796816 C53.267875,30.646472 51.5056104,25.7378647 51.305464,25.1870558 L39.1756857,25.1870558 C38.9755393,25.7378647 37.1947943,30.6548759 37.1132015,30.8796816 C37.0305626,31.1044872 36.774975,31.255058 36.5267098,31.1570119 C36.2784446,31.057215 32.0042381,29.3928827 31.746907,29.295537 C31.5049181,29.2023932 31.3964764,28.923312 31.4812074,28.6862506 C31.7817757,27.8420037 39.8448163,5.69024155 40.2566157,4.53539873 C41.0554579,2.30169881 42.0819927,6.69491526e-05 45.2344728,6.69491526e-05 L45.2344728,6.69491526e-05 Z" id="logo---1"></path>
                        </g>
                    </g>
                </g>
            </g>
        </g>
    </g>
</svg>