<?xml version="1.0" encoding="UTF-8"?>
<svg width="13px" height="13px" viewBox="0 0 13 13" version="1.1" xmlns="http://www.w3.org/2000/svg" xmlns:xlink="http://www.w3.org/1999/xlink">
    <!-- Generator: Sketch 42 (36781) - http://www.bohemiancoding.com/sketch -->
    <title>Path Copy</title>
    <desc>Created with Sketch.</desc>
    <defs></defs>
    <g id="site" stroke="none" stroke-width="1" fill="none" fill-rule="evenodd">
        <g id="12-callback" transform="translate(-994.000000, -397.000000)" fill="#656565">
            <path d="M1006.82528,397.174723 C1006.70879,397.05824 1006.56319,397 1006.38847,397 C1006.21375,397 1006.06814,397.05824 1005.95166,397.174723 L1000.5,402.626384 L995.048339,397.174723 C994.931856,397.05824 994.786255,397 994.611531,397 C994.436807,397 994.291206,397.05824 994.174723,397.174723 C994.05824,397.291206 994,397.436807 994,397.611531 C994,397.786255 994.05824,397.931856 994.174723,398.048339 L999.626384,403.5 L994.174723,408.951661 C994.05824,409.068144 994,409.213745 994,409.388469 C994,409.563193 994.05824,409.708794 994.174723,409.825277 C994.291206,409.94176 994.436807,410 994.611531,410 C994.786255,410 994.931856,409.94176 995.048339,409.825277 L1000.5,404.373616 L1005.95166,409.825277 C1006.06814,409.94176 1006.21375,410 1006.38847,410 C1006.56319,410 1006.70879,409.94176 1006.82528,409.825277 C1006.94176,409.708794 1007,409.563193 1007,409.388469 C1007,409.213745 1006.94176,409.068144 1006.82528,408.951661 L1001.37362,403.5 L1006.82528,398.048339 C1006.94176,397.931856 1007,397.786255 1007,397.611531 C1007,397.436807 1006.94176,397.291206 1006.82528,397.174723 Z" id="Path-Copy"></path>
        </g>
    </g>
</svg>