<?xml version="1.0" encoding="UTF-8"?>
<svg width="120px" height="90px" viewBox="0 0 120 90" version="1.1" xmlns="http://www.w3.org/2000/svg" xmlns:xlink="http://www.w3.org/1999/xlink">
    <!-- Generator: Sketch 42 (36781) - http://www.bohemiancoding.com/sketch -->
    <title>logo :: heads</title>
    <desc>Created with Sketch.</desc>
    <defs></defs>
    <g id="site" stroke="none" stroke-width="1" fill="none" fill-rule="evenodd">
        <g id="11-search" transform="translate(-50.000000, -45.000000)">
            <g id="logo-::-heads" transform="translate(50.000000, 45.000000)">
                <path d="M26.9598158,87.6538288 C26.8338947,88.1403682 26.5650789,88.518044 26.1537632,88.7886177 C25.7436316,89.0577822 25.2454737,89.1937736 24.6644211,89.1937736 C24.2602105,89.1937736 23.9092895,89.1366995 23.6104737,89.0236082 C23.3108684,88.9108691 23.0617895,88.7530345 22.8600789,88.553275 C22.6583684,88.3535155 22.5095526,88.118525 22.4120526,87.848656 C22.3149474,87.5784346 22.2663947,87.2867223 22.2663947,86.9731669 L22.2663947,84.2737715 C22.2663947,84.0003793 22.3149474,83.7340333 22.4120526,83.4740289 C22.5095526,83.2136722 22.6567895,82.9832618 22.8541579,82.7835023 C23.0515263,82.5840951 23.3002105,82.4241466 23.5998158,82.304009 C23.8986316,82.1845761 24.2527105,82.1236266 24.6644211,82.1236266 C25.2908684,82.1236266 25.8012632,82.2701873 26.1928421,82.5640135 C26.5848158,82.8574873 26.8441579,83.2242415 26.9720526,83.6639237 L25.7495526,84.0232794 C25.7282368,83.9242804 25.6903421,83.8280999 25.6386316,83.7340333 C25.5857368,83.6410236 25.5158684,83.5557647 25.4258684,83.4786089 C25.3350789,83.4028624 25.2273158,83.3408559 25.1013947,83.2939987 C24.9738947,83.2471416 24.8278421,83.2242415 24.6644211,83.2242415 C24.4698158,83.2242415 24.3028421,83.2538355 24.1646842,83.3137281 C24.0265263,83.3743253 23.9120526,83.4528903 23.8228421,83.5483662 C23.7332368,83.6459559 23.6665263,83.7541149 23.6223158,83.8739002 C23.5769211,83.9936854 23.5544211,84.1138229 23.5544211,84.2336082 L23.5544211,87.0038178 C23.5544211,87.1500262 23.5769211,87.2905977 23.6223158,87.4237707 C23.6665263,87.5569437 23.736,87.6728535 23.8287632,87.7732617 C23.9231053,87.8736699 24.0383684,87.9518827 24.1765263,88.0082522 C24.3146842,88.0656786 24.4773158,88.0935111 24.6644211,88.0935111 C24.9403421,88.0935111 25.1756053,88.0237538 25.3698158,87.8835346 C25.5628421,87.7436677 25.6875789,87.5506021 25.7388947,87.3029286 L26.9598158,87.6538288 Z M35.0891053,87.0235471 C35.0891053,87.3564796 35.0314737,87.6566473 34.9162105,87.9236979 C34.8009474,88.1903962 34.6351579,88.4183404 34.4227895,88.6085876 C34.2100263,88.799187 33.9577895,88.9436339 33.6664737,89.0433375 C33.3747632,89.1437457 33.0546316,89.1934213 32.7037105,89.1934213 C32.277,89.1934213 31.9114737,89.1317672 31.6063421,89.0088112 C31.2992368,88.8858551 31.0501579,88.7188604 30.8606842,88.508884 C30.6692368,88.2982029 30.5295,88.0554616 30.4398947,87.7785464 C30.3502895,87.5016311 30.3060789,87.2102712 30.3060789,86.9030573 L30.3060789,84.2734192 C30.3060789,84.0278594 30.3487105,83.7766628 30.4351579,83.5233522 C30.5204211,83.2714509 30.6585789,83.0410405 30.8500263,82.8338825 C31.0398947,82.6270769 31.2854211,82.4572637 31.5877895,82.3240907 C31.8913421,82.19127 32.262,82.1239789 32.7037105,82.1239789 C33.1138421,82.1239789 33.4691053,82.1870423 33.7679211,82.3145783 C34.0659474,82.4407051 34.3150263,82.605586 34.5123947,82.8092209 C34.7109474,83.0121511 34.8554211,83.2429139 34.9493684,83.4990429 C35.0421316,83.7558765 35.0891053,84.0137671 35.0891053,84.2734192 L35.0891053,87.0235471 Z M33.7896316,84.2565083 C33.7896316,84.1694878 33.7726579,84.0669658 33.7395,83.9507036 C33.7059474,83.8330323 33.6479211,83.7213502 33.5662105,83.6142481 C33.4845,83.5082029 33.3731842,83.4155455 33.2354211,83.3394467 C33.0972632,83.2619386 32.9192368,83.2242415 32.7037105,83.2242415 C32.4866053,83.2242415 32.3062105,83.2591201 32.1605526,83.329582 C32.0145,83.3993393 31.8992368,83.4863597 31.8127895,83.5895864 C31.7259474,83.6931654 31.6651579,83.8044952 31.6268684,83.9256897 C31.5909474,84.0458272 31.5708158,84.1596232 31.5708158,84.266373 L31.5834474,86.931242 C31.5834474,87.2655837 31.6683158,87.5456698 31.8412105,87.7729094 C32.0129211,87.9997967 32.3030526,88.1135927 32.7147632,88.1135927 C33.0056842,88.1135927 33.2583158,88.0248107 33.4706842,87.8479514 C33.6830526,87.671092 33.7896316,87.428703 33.7896316,87.1214892 L33.7896316,84.2565083 Z M42.6887763,89.1339515 L40.8516711,86.1439008 L40.0345658,84.7138765 L40.0010132,84.7233888 L40.0010132,89.1339515 L38.7118026,89.1339515 L38.7118026,82.1740773 L39.8889079,82.1740773 L41.6135132,85.0140442 L42.5324605,86.573366 L42.5778553,86.5635014 L42.5778553,82.1740773 L43.8548289,82.1740773 L43.8548289,89.1339515 L42.6887763,89.1339515 Z M52.3197237,87.1535846 C52.3197237,87.7873893 52.1041974,88.2852027 51.6699868,88.6484338 C51.2369605,89.0120172 50.6255132,89.1938089 49.8328816,89.1938089 C49.2056447,89.1938089 48.6861711,89.0831837 48.2760395,88.8626379 C47.8647237,88.6403307 47.5445921,88.3542553 47.3120921,88.0033551 L48.3660395,87.32375 C48.5373553,87.5636728 48.7426184,87.7553292 48.9822237,87.8987192 C49.2206447,88.0417568 49.5123553,88.1139803 49.8553816,88.1139803 C50.2666974,88.1139803 50.5556447,88.0244936 50.7238026,87.8476343 C50.89275,87.6711272 50.9760395,87.452343 50.9760395,87.1919863 C50.9760395,87.0323901 50.9428816,86.895694 50.8757763,86.7815457 C50.8074868,86.6673974 50.7147237,86.5694554 50.5947237,86.4856057 C50.4751184,86.402813 50.3294605,86.3309419 50.15775,86.2706969 C49.9860395,86.210452 49.7993289,86.1533779 49.5972237,86.1005315 C49.2238026,85.9937817 48.9064342,85.880338 48.6455132,85.7598482 C48.3841974,85.6400629 48.17025,85.5005484 48.0016974,85.3444753 C47.83275,85.1869929 47.7115658,85.0073151 47.6373553,84.8033279 C47.56275,84.6000453 47.5248553,84.367521 47.5248553,84.1075166 C47.5248553,83.8207367 47.5809079,83.5554476 47.6934079,83.3109448 C47.8055132,83.0667943 47.9665658,82.8571702 48.1745921,82.6803108 C48.3841974,82.5030991 48.6328816,82.3660507 48.92025,82.2695179 C49.2072237,82.1722805 49.5305132,82.1236618 49.8889342,82.1236618 C50.4719605,82.1236618 50.9444605,82.2103299 51.3072237,82.3843708 C51.6684079,82.5573548 51.9585395,82.7937545 52.1740658,83.0946268 L51.2006447,83.8235552 C51.02775,83.6107602 50.8331447,83.4539825 50.6176184,83.3535743 C50.4005132,83.2538707 50.1498553,83.2038427 49.8676184,83.2038427 C49.5305132,83.2038427 49.2723553,83.2855785 49.0935395,83.4486978 C48.9139342,83.6125218 48.8247237,83.8168613 48.8247237,84.0634779 C48.8247237,84.2044017 48.8653816,84.3255962 48.9474868,84.4291752 C49.0307763,84.5327542 49.1420921,84.62365 49.2845921,84.7039766 C49.4259079,84.7839509 49.5944605,84.8561743 49.7886711,84.9192377 C49.9832763,84.9823011 50.1881447,85.0432506 50.4048553,85.1038479 C50.7711711,85.2039038 51.0747237,85.3187567 51.3174868,85.4487589 C51.5606447,85.5787611 51.7564342,85.7274357 51.90525,85.8937258 C52.0556447,86.0603682 52.1618289,86.2467399 52.2253816,86.4531933 C52.28775,86.6607036 52.3197237,86.8928755 52.3197237,87.1535846 Z M60.56025,82.1737602 L60.56025,87.0236528 C60.56025,87.3565853 60.5026184,87.6588668 60.3865658,87.9283836 C60.2716974,88.1989573 60.1078816,88.4265492 59.8935395,88.6136256 C59.6807763,88.8003496 59.4289342,88.9437396 59.1376184,89.0434432 C58.8474868,89.1434991 58.5253816,89.193527 58.1744605,89.193527 C57.7706447,89.193527 57.4185395,89.1346913 57.1165658,89.0180769 C56.8126184,88.9018148 56.5623553,88.7429232 56.3645921,88.5431637 C56.1672237,88.3434042 56.0172237,88.1084138 55.9165658,87.8381924 C55.8166974,87.5686756 55.7649868,87.2801341 55.7649868,86.9732726 L55.7649868,82.1737602 L57.0431447,82.1737602 L57.0431447,87.0039235 C57.0431447,87.3033866 57.1374868,87.5602202 57.3289342,87.7737197 C57.5180132,87.9872193 57.8010395,88.0936168 58.1744605,88.0936168 C58.4874868,88.0936168 58.7472237,88.001664 58.9536711,87.818463 C59.1585395,87.6352621 59.2619605,87.3872362 59.2619605,87.0736808 L59.2619605,82.1737602 L60.56025,82.1737602 Z M64.2724737,89.1339515 L64.2724737,82.1740773 L65.5490526,82.1740773 L65.5490526,88.0537706 L68.5628684,88.0537706 L68.5628684,89.1339515 L64.2724737,89.1339515 Z M73.8201711,83.2138483 L73.8201711,89.1337049 L72.5412237,89.1337049 L72.5412237,83.2138483 L70.8288553,83.2138483 L70.8288553,82.1738307 L75.5451711,82.1738307 L75.5451711,83.2138483 L73.8201711,83.2138483 Z M78.8984211,89.1335992 L78.8984211,82.173725 L80.1880263,82.173725 L80.1880263,89.1335992 L78.8984211,89.1335992 Z M87.9393158,89.1339515 L86.1018158,86.1439008 L85.2847105,84.7138765 L85.2511579,84.7233888 L85.2511579,89.1339515 L83.9627368,89.1339515 L83.9627368,82.1740773 L85.1394474,82.1740773 L86.8644474,85.0140442 L87.7826053,86.573366 L87.828,86.5635014 L87.828,82.1740773 L89.1057632,82.1740773 L89.1057632,89.1339515 L87.9393158,89.1339515 Z M95.1409737,82.1238732 C95.4536053,82.1238732 95.739,82.1622749 95.9971579,82.2387261 C96.2553158,82.3155296 96.4803158,82.4243932 96.6741316,82.5642601 C96.8687368,82.7034223 97.0317632,82.8686555 97.1620263,83.0589026 C97.2922895,83.2491497 97.3878158,83.4534893 97.449,83.674035 L96.2268947,84.013309 C96.2032105,83.9139578 96.1672895,83.8170727 96.1143947,83.7237106 C96.0622895,83.6303486 95.9904474,83.5479082 95.9016316,83.4742755 C95.8120263,83.4002905 95.7038684,83.3411025 95.5767632,83.293893 C95.4508421,83.2470359 95.3051842,83.2244881 95.1409737,83.2244881 C94.9463684,83.2244881 94.779,83.2540821 94.6408421,83.3136224 C94.5034737,83.3742196 94.3897895,83.4527846 94.2997895,83.5486128 C94.2101842,83.6458502 94.1434737,83.7543616 94.0968947,83.8737945 C94.0542632,83.993932 94.0305789,84.1133649 94.0305789,84.2335025 L94.0305789,87.0139291 C94.0305789,87.1604898 94.0542632,87.3003567 94.0968947,87.4324728 C94.1434737,87.5667027 94.2117632,87.6833171 94.3061053,87.783373 C94.3988684,87.8837812 94.5141316,87.9637555 94.6534737,88.0240004 C94.7920263,88.0842453 94.9534737,88.113487 95.1409737,88.113487 C95.5124211,88.113487 95.7954474,88.0190681 95.9868947,87.8281163 C96.1767632,87.6382215 96.2726842,87.4074588 96.2726842,87.1340666 L96.2726842,86.3138901 L95.1062368,86.3138901 L95.1062368,85.3239004 L97.5492632,85.3239004 L97.5492632,86.9734135 C97.5492632,87.3074029 97.4932105,87.6100367 97.3807105,87.8837812 C97.2682105,88.1571734 97.1103158,88.39005 96.9050526,88.5831156 C96.6986053,88.7772381 96.4467632,88.927322 96.1491316,89.0330148 C95.8499211,89.1401169 95.5124211,89.1933156 95.1409737,89.1933156 C94.7371579,89.1933156 94.3866316,89.1365938 94.0870263,89.0238548 C93.7882105,88.9111157 93.5407105,88.7529288 93.3409737,88.5535216 C93.1436053,88.3537621 92.9963684,88.1187717 92.8996579,87.8489026 C92.8021579,87.5783289 92.7543947,87.2866166 92.7543947,86.9734135 L92.7543947,84.2740181 C92.7543947,84.0006259 92.8013684,83.7335753 92.8937368,83.4742755 C92.9876842,83.2139188 93.1337368,82.9831561 93.3311053,82.7837489 C93.5284737,82.5843417 93.7775526,82.4243932 94.0767632,82.3042557 C94.374,82.1841181 94.7296579,82.1238732 95.1409737,82.1238732 Z" id="consulting" fill="#FFFFFF"></path>
                <path d="M12.8594605,50.7391916 L17.5722237,50.7391916 L17.5722237,76.421145 L12.8594605,76.421145 L12.8594605,65.313531 L4.75590789,65.313531 L4.75590789,76.421145 L0.000118421052,76.421145 L0.000118421052,50.7391916 L4.75590789,50.7391916 L4.75590789,61.5135208 L12.8594605,61.5135208 L12.8594605,50.7391916 Z M26.9148947,76.4212155 L26.9148947,50.7392621 L42.9159474,50.7392621 L42.9159474,54.6495452 L31.6292368,54.6495452 L31.6292368,61.5135912 L41.3456842,61.5135912 L41.3456842,65.3509463 L31.6292368,65.3509463 L31.6292368,72.4358904 L42.9159474,72.4358904 L42.9159474,76.4212155 L26.9148947,76.4212155 Z M62.8430921,70.8861161 L54.8638816,70.8861161 C54.8078289,71.1077188 54.6980921,71.4769391 54.5326974,71.9934249 C54.3673026,72.5095583 54.1955921,73.0630365 54.0167763,73.6535072 C53.8375658,74.243978 53.6721711,74.7978085 53.5198026,75.3139419 C53.3682237,75.83078 53.2513816,76.2000003 53.1692763,76.4212507 L48.2480921,76.4212507 L56.5584868,50.738945 L61.1074342,50.738945 L69.4580921,76.4212507 L64.4551974,76.4212507 L62.8430921,70.8861161 Z M57.3858553,61.9557749 L55.8976974,67.1223937 L61.7682237,67.1223937 L60.3207237,61.9931197 C60.26625,61.771517 60.1766447,61.4022966 60.0523026,60.8861632 C59.9291447,60.3689729 59.7909868,59.8281778 59.6390132,59.2623687 C59.4874342,58.696912 59.3429605,58.1614015 59.2048026,57.6572466 C59.0666447,57.1534441 58.9849342,56.7905653 58.9573026,56.5686103 L58.7508553,56.5686103 L57.3858553,61.9557749 Z M85.2509605,50.7390859 C87.17925,50.7390859 88.8339868,51.057926 90.2128026,51.6980724 C91.5900395,52.3375141 92.5966184,53.3951472 93.2297763,54.8709717 C93.6154342,55.7816918 93.8435921,56.9069683 93.9130658,58.2471537 C93.98175,59.5887483 94.0164868,61.1079068 94.0164868,62.805334 C94.0164868,64.8962909 94.0014868,66.6853185 93.97425,68.1734739 C93.9470132,69.6630384 93.7129342,70.9352281 93.2728026,71.9932135 C92.9131974,72.8542579 92.4450395,73.568037 91.8663553,74.1327891 C91.2884605,74.6993028 90.6256974,75.1477928 89.8820132,75.4800206 C89.1375395,75.8118962 88.3243816,76.0521712 87.4421447,76.2001412 C86.5599079,76.3470543 85.6500395,76.4210393 84.7137237,76.4210393 L76.4443816,76.4210393 L76.4443816,50.7390859 L85.2509605,50.7390859 Z M89.2610921,60.2958334 C89.2610921,58.5490829 88.9164868,57.1715528 88.2284605,56.162186 C87.53925,55.1542286 86.3120132,54.6497214 84.5479342,54.6497214 L81.1993816,54.6497214 L81.1993816,72.5096992 L84.5889868,72.5096992 C86.3530658,72.5096992 87.5724079,72.0982017 88.2481974,71.2730929 C88.9243816,70.4493933 89.2610921,69.2991027 89.2610921,67.8229259 L89.2610921,60.2958334 Z M119.8155,69.114563 C119.8155,71.4524889 119.014974,73.2908398 117.416684,74.6317298 C115.817605,75.9726198 113.557737,76.6423601 110.636684,76.6423601 C108.321158,76.6423601 106.405105,76.2340334 104.889316,75.4184369 C103.372737,74.6017835 102.188526,73.5455596 101.333132,72.2508222 L105.2205,69.7416739 C105.854053,70.6277323 106.611553,71.3355221 107.493395,71.8636341 C108.376026,72.3928029 109.450895,72.6577397 110.718789,72.6577397 C112.234184,72.6577397 113.303132,72.3315011 113.924053,71.67691 C114.543789,71.0251374 114.853658,70.2183487 114.853658,69.2561914 C114.853658,68.666073 114.730105,68.1605089 114.481026,67.7416129 C114.233921,67.3230692 113.889316,66.9594858 113.447211,66.651215 C113.006684,66.3429442 112.469053,66.0776551 111.834316,65.8564047 C111.201947,65.6348021 110.511947,65.4244733 109.767868,65.2275323 C108.389447,64.8340026 107.219053,64.4154589 106.253526,63.9711966 C105.289184,63.5279913 104.496158,63.0160855 103.876816,62.4375933 C103.2555,61.8580442 102.807868,61.1932362 102.533526,60.44176 C102.256421,59.6892269 102.120237,58.8338195 102.120237,57.8727191 C102.120237,56.8133245 102.326684,55.8335517 102.739579,54.9341056 C103.152474,54.0343071 103.744974,53.2585216 104.517868,52.6060444 C105.289184,51.9525103 106.206158,51.4469461 107.267605,51.0904089 C108.327079,50.7317579 109.520763,50.5531369 110.843526,50.5531369 C112.993658,50.5531369 114.736816,50.8744432 116.072605,51.512828 C117.409974,52.1529744 118.477737,53.0259973 119.277868,54.1333061 L115.681026,56.8267122 C115.045895,56.0400051 114.329447,55.4615129 113.5305,55.0929972 C112.730368,54.7230722 111.807079,54.5395189 110.760237,54.5395189 C109.520763,54.5395189 108.569053,54.840039 107.907868,55.4428405 C107.246289,56.0456421 106.9155,56.8027552 106.9155,57.7124183 C106.9155,58.2292564 107.067474,58.678451 107.371421,59.0596498 C107.673,59.4408487 108.087474,59.7790659 108.611289,60.0746535 C109.133921,60.3691843 109.754447,60.6337687 110.471684,60.8680545 C111.187737,61.1016357 111.945632,61.328523 112.745763,61.5494211 C114.095368,61.9196984 115.219184,62.3431744 116.114842,62.8233723 C117.009711,63.3028655 117.733658,63.8503544 118.284711,64.4647822 C118.836158,65.0806192 119.229316,65.7697366 119.463,66.5314298 C119.697079,67.2945321 119.8155,68.1552242 119.8155,69.114563 Z" id="heads-::-text" fill="#FFFFFF"></path>
                <path d="M61.7527895,23.3965921 C61.7587105,23.452257 61.7650263,23.4991142 61.7725263,23.5523129 C61.9110789,24.2357934 61.8897632,24.8843952 61.6438421,25.4657058 L61.6173947,25.5520217 L61.6102895,25.5333493 C61.2112105,26.4098953 60.2784474,27.1222651 58.5858158,27.5541966 C58.4973947,29.1216215 58.0509474,30.7496437 57.1158158,31.9168451 C57.2129211,32.7944481 57.1067368,33.6769834 57.0123947,34.614479 C57.0096316,34.657813 56.9942368,34.6965671 56.9867368,34.7388442 C56.9823947,34.8019076 56.9792368,34.860391 56.9729211,34.9262729 C56.9729211,34.8942127 56.9666053,34.8642664 56.9666053,34.8329108 C56.4937105,37.1141149 52.4409474,37.7253719 50.1254211,37.7253719 C50.0117368,37.7253719 49.902,37.7236103 49.797,37.7207918 C47.1475263,37.6485684 45.4529211,36.77167 45.3301579,34.6479484 L45.3238421,34.6694392 L45.3301579,34.6313898 C45.3175263,34.4217657 45.3163421,34.2040384 45.3360789,33.9694003 C45.3771316,33.489907 45.4742368,33.0255631 45.5973947,32.5700269 L45.5985789,32.5650946 L45.5985789,32.5679131 C45.8460789,31.6550791 46.2045,30.7764192 46.4579211,29.8730977 C46.2135789,28.5110692 45.2906842,27.6940634 44.6650263,26.3492981 C43.9683158,24.8657227 43.4030526,23.3303579 43.0813421,21.7453175 C42.9266053,20.9903182 42.8200263,20.2434221 42.7533158,19.4979352 C42.6972632,18.8778705 42.6163421,17.3661104 42.6609474,15.9921033 C42.7075263,14.4690694 42.8693684,13.7834751 42.9116053,13.5622247 C42.9147632,13.5463708 42.9171316,13.532983 42.9187105,13.5220614 C43.3912105,10.1666657 44.7305526,6.6833817 47.3847632,4.29014326 C47.4356842,4.30564488 47.4810789,4.32361266 47.5383158,4.33700042 C48.2993684,4.5142121 49.0995,4.79923049 49.7358158,5.0518364 C48.4888421,5.71347364 47.3555526,6.5350594 46.4050263,7.56415545 C45.2539737,8.81133109 44.2762105,10.1937936 43.6904211,11.7337384 C43.4030526,12.4869761 43.1377895,13.2493739 42.9814737,14.0353764 C42.9360789,14.271776 42.7975263,15.2596519 42.8433158,15.7747284 C42.9431842,16.9066988 43.0296316,18.0844695 43.2558158,19.2481478 C43.572,20.8740561 44.0835789,22.4777689 44.8793684,23.9173056 C45.8508158,25.6774438 46.6781842,26.8974916 46.6963421,28.7252733 C46.7054211,28.6544591 46.7227895,28.5850542 46.7298947,28.5135353 C46.7172632,28.6477652 46.7054211,28.7703689 46.6908158,28.8929727 C46.6888421,29.0497504 46.692,29.2012435 46.6754211,29.3685905 C46.5459474,30.8324365 46.0860789,32.0006948 45.6913421,33.2901475 C46.1476579,34.8565156 48.2504211,35.5322452 50.5359474,35.5322452 C52.9979211,35.5322452 55.6726579,34.7480043 56.7301579,33.4469253 C56.6405526,33.175647 56.5355526,32.9078917 56.3989737,32.638375 C56.2718684,32.3892921 56.4048947,30.3733772 56.6133158,30.2074394 C57.3526579,29.6190825 57.9601579,28.9419437 58.2392368,28.0921732 C58.2498947,27.9480786 58.2562105,27.7803793 58.2301579,27.6433309 C58.1847632,27.4034081 58.3197632,25.2388185 58.4460789,25.2109861 C59.3966053,25.0045327 60.3364737,24.694148 61.0635789,24.1198835 C60.1695,22.3290943 58.6497632,20.771534 57.3317368,19.2174968 C57.1489737,19.0015311 57.3723947,17.0331779 57.5468684,16.7858566 C57.7367368,16.5600263 57.8780526,16.3130573 57.9921316,16.0527006 C57.9795,15.9674417 57.9692368,15.8649196 57.957,15.7303374 C57.8050263,15.0320599 57.6230526,14.3432949 57.3431842,13.6756684 C57.0337105,12.936523 56.6985789,12.2040716 56.2762105,11.507908 C55.9438421,10.960419 56.1589737,10.0828161 56.4783158,9.22987477 C56.4826579,9.17914221 56.4873947,9.1270004 56.4897632,9.07591552 L56.5189737,9.1234773 C56.5979211,8.91526239 56.6812105,8.7116275 56.7633158,8.51433418 C55.8293684,7.22171062 53.1009474,5.79274328 52.0505526,5.2854176 C51.7347632,5.13286758 51.4154211,4.98842069 51.0941053,4.8478492 C50.5446316,4.59841407 49.1441053,3.99385097 47.8102895,3.67324932 L47.8067368,3.67677242 C47.2166053,3.51259619 46.6185789,3.36603544 46.0102895,3.25259178 C43.8384474,2.85025433 41.5359474,2.58426065 39.267,2.58426065 C38.3717368,2.58426065 37.4812105,2.62548086 36.6068684,2.71637672 C28.7310789,3.53056397 20.0705526,8.2257927 21.2366053,16.2817018 C21.7481842,19.8213553 23.1416053,22.994607 24.3368684,26.3637427 C25.2313421,28.8841649 25.3454211,31.3281359 24.9854211,33.9211339 C24.2338421,39.3259139 17.7818684,42.7813655 12.0593684,43.2369017 C12.1927895,43.2266847 12.1031842,40.818297 12.2748947,40.8052615 C14.8805526,40.5973989 17.6543684,39.7264898 19.8226579,38.438094 C21.6885789,37.3321944 23.9405526,35.7094569 24.6589737,33.7280682 C25.3876579,31.7114487 24.4647632,29.6278903 23.6808158,27.7162589 C21.3139737,21.9373262 18.9814737,13.7820658 22.5392368,7.88687096 C25.8976579,2.31580081 32.9464737,0.196659164 39.7083158,0.196659164 C40.8337105,0.196659164 41.9523947,0.25549485 43.0434474,0.366824653 C45.6222632,0.62999985 48.2093684,1.17607958 50.5916053,2.10864283 L50.5841053,2.11357516 C51.2796316,2.41374285 52.8435789,3.15394512 53.6014737,3.57671652 C54.4998947,4.11575005 55.3473947,4.72700704 56.1230526,5.42704602 C57.0064737,6.22397011 57.2464737,6.58191656 57.2673947,7.20867517 C57.2741053,7.176615 57.2859474,7.14244098 57.2902895,7.11284698 C57.2827895,7.19775357 57.2764737,7.28442171 57.2673947,7.37038523 C57.2630526,7.62862809 57.2326579,7.93548967 57.1975263,8.329724 C57.1706842,8.62108396 57.1430526,8.89658999 57.1023947,9.1639929 C57.0976579,9.23621635 57.0901579,9.30632594 57.0854211,9.37819707 L57.0779211,9.31548598 C57.0443684,9.52088242 57.0064737,9.72169884 56.9531842,9.91969678 C58.0572632,12.1004926 58.7918684,15.0598924 58.1330526,17.4813156 C59.5525263,19.1850843 61.2826579,21.431762 61.7405526,23.4138553 L61.7527895,23.3965921 Z M107.611776,23.102766 C107.772039,23.4173784 107.789013,23.9395011 107.71125,24.7128204 C107.634276,25.4752182 107.558092,25.7264149 107.348882,26.0945783 C106.815592,27.0264369 105.392961,27.2867936 104.224934,27.498884 C104.072171,29.0324872 103.618618,30.5664428 102.659803,31.7523166 C102.923882,33.5268995 102.718618,35.7630079 101.235197,36.5003917 C98.1819079,38.0170841 92.1420395,36.0638802 90.3459868,39.3033661 C91.1066447,41.2984948 94.1907237,41.7085831 97.16625,41.7085831 C99.1324342,41.7085831 101.051645,41.5292575 102.219671,41.5098805 C102.149803,41.5109374 102.112697,43.9401115 102.004145,43.9429299 C100.426776,43.9690008 98.4799342,44.178625 96.5773026,44.178625 C94.7370395,44.178625 92.9382237,43.9820363 91.5574342,43.2333786 C89.5071711,42.1225467 89.9405921,40.3109713 90.1166447,38.4772003 C90.1269079,38.3690413 90.1474342,38.2714516 90.1620395,38.1692818 C90.1667763,38.1270047 90.1695395,38.0850799 90.1742763,38.0424504 L90.1742763,38.0938876 C91.1007237,32.6239303 99.7853289,36.7322114 102.271382,33.2644289 C102.193224,32.9945599 102.100066,32.7275093 101.978092,32.4576402 C101.853355,32.1793157 101.970592,30.2190656 102.193224,30.026 C103.038355,29.2995378 103.703092,28.4702013 103.973487,27.4315928 C103.997566,27.3396401 104.016118,27.2653028 104.036645,27.2004778 C104.056776,26.5240436 104.143224,25.1222041 104.250987,25.1017701 C104.978882,24.9664833 106.023355,24.8199225 106.781645,24.4242789 C106.247566,23.570633 105.518882,22.7346026 105.004539,22.053236 C104.286513,21.1005911 103.559803,20.1546401 102.819276,19.2174968 C102.645592,18.9997696 102.852039,17.011687 103.035197,16.7858566 C103.206513,16.5730617 103.337566,16.3856331 103.437434,16.1953859 C103.277961,15.2786766 102.953092,14.3890951 102.520066,13.5365061 C102.362171,13.2236553 101.794934,12.5521534 101.777566,12.1853992 L101.774803,12.1949115 L101.776776,12.1688406 L101.774803,12.1512252 C101.802039,11.5547652 101.869145,10.9579529 101.924013,10.3636067 C101.927961,10.3132265 101.942171,10.2653124 101.949276,10.2163414 C101.961513,10.064496 101.975329,9.91335521 101.989934,9.76327136 L102.031382,9.83267633 C102.125329,9.50361926 102.259934,9.1900638 102.400461,8.87721296 C101.844671,8.09931358 100.65375,7.56732624 99.8492763,7.08149144 C98.87625,6.49348688 97.8669079,5.93578094 96.8251974,5.42598909 C94.5744079,4.32537421 92.1755921,3.44812355 89.6796711,2.96475491 C87.9270395,2.62548086 85.9655921,2.43135833 83.9520395,2.43135833 C81.27375,2.43135833 78.5050658,2.7787355 76.0095395,3.58446733 C75.4742763,3.24871637 74.63625,2.73927683 73.7828289,2.28233141 C77.0082237,0.713144892 80.5774342,7.04619003e-05 84.1742763,7.04619003e-05 C89.0855921,7.04619003e-05 94.0478289,1.32722035 98.2454605,3.60701514 C99.1782237,4.11504544 102.673224,5.60284846 102.876118,6.7390466 C103.092829,7.95803747 102.893882,9.34437536 102.46875,10.5985972 C103.502961,12.5697688 104.264803,15.3385692 103.654539,17.5486067 C105.096908,19.2861972 106.641513,21.196067 107.611776,23.102766 Z M78.2866579,10.1637063 C79.5912632,12.2296493 79.9153421,14.8772552 79.3879737,17.2588674 C80.8196842,18.8435555 84.4623158,22.9292888 84.4623158,24.0873301 C84.4623158,25.2457238 82.0923158,25.8650839 80.2938947,26.1303729 C80.2192895,27.7841137 79.5154737,30.7699368 78.5436316,31.9501736 C78.5736316,32.2609106 78.5815263,32.5719999 78.5803421,32.8823845 C78.5902105,32.821435 78.6056053,32.7629516 78.6131053,32.7002405 C78.5996842,32.8492674 78.5874474,32.9982943 78.5736316,33.146969 C78.5523158,33.7846492 78.4828421,34.4325463 78.4102105,35.1216637 C78.1619211,37.4162555 74.5263947,37.8538239 72.3802105,37.8538239 C72.2811316,37.8538239 72.1844211,37.852767 72.0916579,37.8510054 C69.7169211,37.8059098 67.2715263,37.4109709 67.1436316,35.1956487 C67.1282368,35.2720999 67.1128421,35.3481987 67.1069211,35.4264114 C67.1175789,35.2766799 67.1317895,35.1273007 67.1444211,34.9786261 C67.1444211,34.885264 67.1404737,34.796482 67.1495526,34.6974831 C67.2056053,34.0573367 67.1444211,33.1941784 67.3587632,32.5857399 C67.8103421,31.3117888 68.7427105,30.2530987 69.2767895,29.0344602 C68.9132368,27.3356237 67.9252105,25.9066564 67.1917895,24.2733496 C66.0628421,21.7620874 65.5003421,19.0658628 65.6882368,16.3558981 C65.7703421,15.1767182 65.916,13.9728767 66.1552105,12.7827752 C66.7540263,9.80857836 67.9413947,6.92422047 70.1866579,4.73250307 C70.671,4.91218091 71.3467895,5.2045978 71.9653421,5.51110707 C71.3479737,5.92788921 70.7716579,6.38906234 70.2577105,6.90907117 C69.6873158,7.48474489 69.1737632,8.07979564 68.7178421,8.69070031 C68.7138947,8.69563265 68.7107368,8.70056498 68.7067895,8.70584962 C68.3673158,9.16138581 68.0598158,9.62572973 67.7850789,10.0981768 C67.7791579,10.1076891 67.7744211,10.1172015 67.7685,10.1270661 C67.6066579,10.4067999 67.4570526,10.6893521 67.3173158,10.9740182 C67.2896842,11.03074 67.2624474,11.0871095 67.2352105,11.1441837 C67.1223158,11.3834018 67.0181053,11.6247338 66.9213947,11.8674751 C66.8953421,11.933357 66.8673158,11.9988865 66.8420526,12.0651207 C66.7927105,12.1947706 66.7469211,12.3251251 66.7023158,12.455832 C66.6663947,12.5601156 66.6332368,12.6643992 66.6004737,12.7690351 C65.5781053,16.032478 65.9819211,19.5210467 67.9287632,22.8616454 C68.8544211,24.4512658 69.6758684,26.0782311 69.621,27.8965005 L69.6336316,27.8507002 C69.6292895,27.8965005 69.6245526,27.9423007 69.621,27.9873963 C69.6186316,28.0472889 69.621,28.10542 69.6186316,28.1649603 C69.5756053,28.7335878 69.5195526,29.3015108 69.4571842,29.8673198 C69.4465263,29.9916851 69.4358684,30.1164026 69.4240263,30.2404156 L69.4181053,30.1766476 C69.3952105,30.3757024 69.3754737,30.5754619 69.3466579,30.7738122 C69.1721842,31.9501736 68.2654737,32.8746337 67.6563947,33.909719 C68.4963947,35.0364048 70.5423158,35.5789614 72.6431053,35.5789614 C74.961,35.5789614 77.3448158,34.9176765 78.2456053,33.6500669 C78.1595526,33.2861312 78.0498158,32.9264232 77.9163947,32.5667152 C77.8113947,32.2788783 77.901,30.3115821 78.1323158,30.1347227 C78.9095526,29.5379104 79.4211316,28.7948897 79.6670526,27.9236283 C79.6796842,27.7407797 79.6824474,27.5515895 79.6670526,27.4064379 C79.6382368,27.1682767 79.8245526,25.1949912 79.9188947,25.1851265 C82.3441579,24.9416807 83.3337632,24.2099338 83.3337632,24.2099338 C83.3337632,24.2099338 81.8637632,21.7705429 78.7346842,19.2173559 C78.4887632,19.0172441 78.8077105,17.0901111 78.9502105,16.7857157 C79.7092895,15.1495904 78.6632368,13.228799 77.5492895,11.8533827 C77.3590263,11.6198015 77.766,8.75940067 77.7269211,8.33592465 C76.7428421,7.56824224 75.7465263,6.80584448 74.6578421,6.15935655 C74.0882368,5.82149174 73.5040263,5.50159471 72.9119211,5.19438082 L72.9170526,5.19015311 C72.2704737,4.83643437 71.4407368,4.45629242 70.7787632,4.19382184 L70.7823158,4.19135567 L70.7692895,4.18536641 C70.7681053,4.18642334 70.7669211,4.18748027 70.7657368,4.1885372 C70.6528421,4.14379389 70.5438947,4.10186906 70.4428421,4.06487656 C70.4416579,4.0662858 70.4404737,4.06734273 70.4392895,4.06875197 C70.1598158,3.96094526 69.8787632,3.85701396 69.5913947,3.76506118 C67.1223158,2.97447866 64.5608684,2.53796718 61.9429737,2.53796718 C61.7278421,2.53796718 61.5127105,2.54078566 61.2975789,2.54642261 C59.1024474,2.60666754 56.7762632,2.82263326 54.5531053,3.32643585 C54.5507368,3.32432199 54.5499474,3.32185582 54.5475789,3.31974197 C54.2128421,3.02838201 52.7791579,2.32799072 51.7354737,1.84567901 C54.9829737,0.759156513 58.5367895,0.0756760809 62.0657368,0.0756760809 C64.7104737,0.0760283904 67.3390263,0.457227271 69.8065263,1.33412562 C70.7787632,1.67903662 71.7261316,2.07397557 72.6470526,2.51471476 C73.6508684,3.00090187 74.7758684,3.67522225 75.4686316,4.1071537 C75.5227105,4.14132772 75.5779737,4.17444482 75.6308684,4.2107327 C76.5608684,4.84700366 78.7800789,5.8648258 78.6904737,7.01546864 C78.6083684,8.074511 78.5598158,9.14412264 78.2866579,10.1637063 Z" id="heads-::-pic" fill="#B4894B"></path>
            </g>
        </g>
    </g>
</svg>