<?xml version="1.0" encoding="UTF-8"?>
<svg width="130px" height="48px" viewBox="0 0 130 48" version="1.1" xmlns="http://www.w3.org/2000/svg" xmlns:xlink="http://www.w3.org/1999/xlink">
    <!-- Generator: Sketch 42 (36781) - http://www.bohemiancoding.com/sketch -->
    <title>Group</title>
    <desc>Created with Sketch.</desc>
    <defs></defs>
    <g id="site" stroke="none" stroke-width="1" fill="none" fill-rule="evenodd">
        <g id="01-main" transform="translate(-505.000000, -2093.000000)">
            <g id="smi" transform="translate(221.000000, 1808.000000)">
                <g id="Group-10">
                    <g id="Group" transform="translate(284.000000, 285.000000)">
                        <rect id="Rectangle-7-Copy-3" fill="#FFFFFF" x="0" y="0" width="130" height="48"></rect>
                        <g id="Page-1" transform="translate(28.000000, 15.000000)" fill="#656565">
                            <path d="M64.1765938,0.35243418 C64.1765938,0.35243418 63.2231736,0.7001506 63.1983728,1.5849179 C63.1793366,2.26961721 63.1777279,15.644593 63.1983728,16.4251452 C63.2231736,17.3565908 64.0528583,17.6254283 64.0528583,17.6254283 L60.0655721,17.6254283 C60.0655721,17.6254283 60.9545105,17.5703878 60.9569236,16.4251452 C60.9588004,15.6087729 60.9569236,6.74275306 60.9569236,6.74275306 L58.2699996,10.4219822 C58.2699996,10.4219822 58.2509634,15.7028785 58.2699996,16.4251452 C58.2946663,17.3565908 59.1986192,17.6254283 59.1986192,17.6254283 L55.0629308,17.6254283 C55.0629308,17.6254283 56.0163511,17.3796804 56.0163511,16.4251452 C56.0163511,15.5773212 56.0188982,2.80579443 56.0163511,1.5849179 C56.0142062,0.671195033 55.0629308,0.35243418 55.0629308,0.35243418 L59.1986192,0.35243418 C59.1986192,0.35243418 58.2699996,0.653597038 58.2699996,1.5849179 L58.2699996,5.41553971 C58.2699996,5.41553971 60.1260322,2.45807801 60.7094525,1.5849179 C61.3781337,0.583579482 60.0655721,0.35243418 60.0655721,0.35243418 L64.1765938,0.35243418" id="Fill-1"></path>
                            <path d="M45.1476949,0.217815756 C44.9750283,1.09958765 43.8571188,1.9305625 45.2715645,5.26020308 C43.4387239,3.28123985 40.6064812,3.46358504 40.6314159,5.21003007 C40.6314159,5.23324445 40.5811442,11.4495803 40.6314159,12.8705248 C40.6808833,14.2675061 43.1911188,14.2950888 43.1911188,12.8746435 L43.1911188,11.0583057 C43.1911188,11.0583057 44.3257855,12.5963206 46.0146478,13.3403039 C46.1934812,16.980468 44.033137,17.8820845 42.4479014,17.8923188 C40.8260681,17.9023034 38.4237493,16.7534414 38.4237493,13.4567503 C38.4237493,9.42768297 38.4563254,3.97954328 38.4237493,2.62899074 C38.3990826,1.60468756 39.6745101,0.352484104 41.2098761,0.352484104 C42.9931152,0.352484104 44.537463,0.395917454 45.1476949,0.217815756" id="Fill-3"></path>
                            <path d="M28.5948736,17.6254283 L37.5848011,17.6254283 C37.5848011,17.6254283 35.8759641,16.6001267 36.4455764,12.6415762 C35.3063518,14.5744851 33.0654388,14.132039 31.7776779,14.0620215 C31.7653446,14.0737534 31.7652105,11.6090356 31.7681598,9.11398934 L35.2180076,9.11398934 C35.2180076,9.11398934 34.2767866,7.96138304 34.1777178,7.21640124 C34.1561344,7.19593265 32.2471489,7.21128409 31.7711091,7.21515315 C31.7740583,5.42215456 31.7776779,3.97974298 31.7776779,3.97974298 C31.7776779,3.97974298 34.8359424,3.70017199 36.4209098,5.26027796 C34.7615402,1.11576283 36.3410112,0.124783516 36.3162105,0.124783516 C35.7650982,0.462640066 28.4010257,0.356677669 28.1326417,0.352683797 C28.242033,0.354805541 29.525638,0.403356039 29.5730946,1.5849179 L29.5730946,16.4251452 C29.5482938,17.4727875 28.5948736,17.6254283 28.5948736,17.6254283" id="Fill-5"></path>
                            <path d="M24.5884438,14.1086 C23.8908062,14.1254491 22.2983315,14.1086 22.2983315,14.1086 L22.2983315,11.1280487 C22.2983315,11.1280487 22.9186178,10.6310614 23.7082192,9.78036676 C24.4565308,11.2116704 25.8023388,14.0796444 24.5884438,14.1086 L24.5884438,14.1086 Z M22.2983315,4.00298232 L23.6721576,4.00298232 C26.1238098,4.86453524 22.2983315,8.47374681 22.2983315,8.47374681 L22.2983315,4.00298232 Z M27.3373025,13.6196004 C26.9234656,11.9602716 25.712788,9.3568916 25.0910272,8.07535815 C25.9456467,6.85523046 26.7203678,5.3482929 26.9411612,3.70032176 C27.2906504,1.08970282 25.2569909,0.352459142 24.4645743,0.352459142 L18.8675199,0.352459142 C18.8675199,0.352459142 20.0885199,0.51171476 20.1058134,1.58494286 C20.1068859,1.6562085 20.1063496,16.4017061 20.1058134,16.4251701 C20.0810127,17.3807038 19.1647264,17.6254533 19.1647264,17.6254533 L25.3808605,17.6254533 C25.3808605,17.6254533 28.3161938,17.5413324 27.3373025,13.6196004 L27.3373025,13.6196004 Z" id="Fill-8"></path>
                            <path d="M0,0.35243418 L4.13595652,0.35243418 C4.13595652,0.35243418 3.2072029,0.653597038 3.2072029,1.5849179 L3.2072029,5.39993865 C3.2072029,5.39993865 5.06336957,2.45807801 5.6466558,1.5849179 C6.31533696,0.583579482 5.00277536,0.35243418 5.00277536,0.35243418 L8.88737319,0.35243418 C8.88737319,0.35243418 8.16037681,0.7001506 8.13571014,1.5849179 C8.11653986,2.26961721 8.11493116,15.644593 8.13571014,16.4251452 C8.16037681,17.3565908 8.76363768,17.6254283 8.76363768,17.6254283 L5.00277536,17.6254283 C5.00277536,17.6254283 5.89171377,17.5703878 5.89426087,16.4251452 C5.89613768,15.6087729 5.89426087,6.72727681 5.89426087,6.72727681 L3.2072029,10.4063811 C3.2072029,10.4063811 3.18816667,15.7028785 3.2072029,16.4251452 C3.23200362,17.3565908 4.13595652,17.6254283 4.13595652,17.6254283 L0,17.6254283 C0,17.6254283 0.953554348,17.3796804 0.953554348,16.4251452 C0.953554348,15.5773212 0.952615942,2.71905254 0.953554348,1.5849179 C0.954358696,0.671195033 0,0.35243418 0,0.35243418" id="Fill-10"></path>
                            <path d="M10.5452279,0.217815756 C10.5452279,0.217815756 11.502804,0.370581333 12.2210866,0.347242148 C12.9392351,0.324027771 13.806054,0.324027771 14.8958112,0.347242148 C15.9854344,0.370581333 17.219304,1.53491962 17.219304,2.81557942 C17.219304,4.39889977 17.193967,5.51556122 17.219304,6.47121974 C17.2462496,7.47480471 15.7872967,8.1709864 15.7872967,8.1709864 C15.7872967,8.1709864 17.1945033,8.72987877 17.219304,9.87087787 C17.2328438,10.4870573 17.2195721,11.6439071 17.219304,14.830642 C17.219304,18.858586 10.284083,18.8856694 10.2893112,14.2717496 C10.2903837,13.3631439 9.69489819,13.4334111 9.69489819,13.4334111 C11.1313293,13.1306257 11.8248112,12.5019654 12.864967,11.267984 C12.8897678,11.2911984 12.8403004,12.9439122 12.8403004,12.9444115 C12.8403004,14.0155178 15.0011808,14.1319641 15.0072134,12.82809 C15.0074815,12.8047508 14.9825467,10.0104138 15.0072134,10.0338777 C14.8777134,8.4108683 11.849612,9.05587851 11.849612,9.05587851 C11.849612,9.05587851 12.3944236,8.0546649 12.5430938,7.12309442 C14.1775286,7.72854035 15.5316482,6.42092192 14.747275,4.65500677 C13.7150286,2.91268041 11.6546917,4.59859334 10.9827931,5.14388158 C12.0197315,1.40474438 10.5452279,0.217815756 10.5452279,0.217815756" id="Fill-12"></path>
                            <path d="M54.376487,6.42459129 C52.5191138,1.41839843 53.9058094,0.194776111 53.8811428,0.217865679 C51.3994616,0.707863764 48.407958,0.706865296 46.0056391,0.217865679 C46.0273565,0.254184946 47.6650087,1.48841599 45.8076355,6.42459129 C46.8571754,5.09338407 47.9480051,4.25342301 49.0518384,3.92380382 L49.0518384,16.4251202 C49.0518384,17.5890841 47.9374145,17.6254033 47.9374145,17.6254033 L52.6675159,17.6254033 C52.6675159,17.6254033 51.305621,17.5890841 51.305621,16.4251202 L51.305621,3.96748678 C52.3424254,4.31894746 53.3738674,5.12982814 54.376487,6.42459129" id="Fill-14"></path>
                            <path d="M68.8730736,6.45329724 C67.6988598,4.9290113 68.4085627,4.02677081 69.1300627,4.0030572 C69.105262,3.97971802 70.6965301,4.0030572 70.6965301,4.0030572 C70.6965301,4.0030572 70.6921062,6.07849738 70.6887547,8.5357267 C70.5983996,8.44274438 69.6506098,7.4626234 68.8730736,6.45329724 M69.5511388,17.6254033 L73.8850989,17.6254033 C73.8850989,17.6254033 72.941867,17.3740391 72.9169322,16.512611 C72.8919975,15.6511828 72.9169322,2.51084704 72.9169322,1.6726333 C72.9169322,0.834294752 73.7364286,0.352409219 73.7364286,0.352409219 L67.8175011,0.352409219 C66.4086859,0.352409219 64.7065518,2.3086573 65.9990047,5.21769331 C66.3738308,6.06139862 66.9599322,6.91396533 67.5924178,7.69139734 C66.6963743,8.9597011 65.7095736,10.2101572 65.8937692,16.4251202 C65.918704,17.4494234 64.6970337,17.6254033 64.6970337,17.6254033 L69.1795301,17.6254033 C69.1795301,17.6254033 68.1393743,17.3097627 68.0899069,16.4251202 C67.8940482,11.4542481 68.6323054,9.83398449 69.0630337,9.31577969 C69.9069286,10.1649766 70.5959866,10.742091 70.6863417,10.8172257 C70.6841967,13.5105926 70.6854033,16.0584329 70.6965301,16.4251202 C70.7211967,17.2399948 69.5511388,17.6254033 69.5511388,17.6254033" id="Fill-16"></path>
                        </g>
                    </g>
                </g>
            </g>
        </g>
    </g>
</svg>