<?xml version="1.0" encoding="UTF-8"?>
<svg width="12px" height="16px" viewBox="0 0 12 16" version="1.1" xmlns="http://www.w3.org/2000/svg" xmlns:xlink="http://www.w3.org/1999/xlink">
    <!-- Generator: Sketch 42 (36781) - http://www.bohemiancoding.com/sketch -->
    <title>Location-pin - simple-line-icons</title>
    <desc>Created with Sketch.</desc>
    <defs></defs>
    <g id="site" stroke="none" stroke-width="1" fill="none" fill-rule="evenodd">
        <g id="09-blok-::-all" transform="translate(-1132.000000, -2950.000000)" fill="#B4894B">
            <g id="footer" transform="translate(221.000000, 2887.000000)">
                <g id="Group-7" transform="translate(909.000000, 30.000000)">
                    <path d="M8.0625,33 C9.00000469,33 9.83853797,33.1614567 10.578125,33.484375 C11.317712,33.8072933 11.9401016,34.247393 12.4453125,34.8046875 C12.9505234,35.361982 13.3359362,36.010413 13.6015625,36.75 C13.8671888,37.489587 14,38.2708292 14,39.09375 C14,39.9270875 13.8359391,40.7786415 13.5078125,41.6484375 C13.1796859,42.5182335 12.7656275,43.3723916 12.265625,44.2109375 C11.7656225,45.0494834 11.2239613,45.8437463 10.640625,46.59375 C10.0572887,47.3437537 9.51041922,48.0104137 9,48.59375 C9,48.6041667 8.92187578,48.6744785 8.765625,48.8046875 C8.60937422,48.9348965 8.42708437,49 8.21875,49 L8.171875,49 C7.95312391,49 7.76822992,48.9348965 7.6171875,48.8046875 C7.46614508,48.6744785 7.390625,48.6041667 7.390625,48.59375 C6.84895563,47.9687469 6.26302398,47.286462 5.6328125,46.546875 C5.00260102,45.807288 4.41927352,45.0286499 3.8828125,44.2109375 C3.34635148,43.3932251 2.8984393,42.5520877 2.5390625,41.6875 C2.1796857,40.8229123 2,39.9583377 2,39.09375 C2,38.2708292 2.16145672,37.489587 2.484375,36.75 C2.80729328,36.010413 3.24478891,35.361982 3.796875,34.8046875 C4.34896109,34.247393 4.99218383,33.8072933 5.7265625,33.484375 C6.46094117,33.1614567 7.23957922,33 8.0625,33 Z M8.25,47.921875 C9.04167062,47.0156205 9.73437203,46.1510458 10.328125,45.328125 C10.921878,44.5052042 11.4166647,43.7265662 11.8125,42.9921875 C12.2083353,42.2578088 12.5052073,41.5651074 12.703125,40.9140625 C12.9010427,40.2630176 13,39.6562528 13,39.09375 C13,38.4583302 12.9036468,37.8359405 12.7109375,37.2265625 C12.5182282,36.6171845 12.218752,36.0729191 11.8125,35.59375 C11.406248,35.1145809 10.8932323,34.7291681 10.2734375,34.4375 C9.65364273,34.1458319 8.91667094,34 8.0625,34 C7.37499656,34 6.72396141,34.1354153 6.109375,34.40625 C5.49478859,34.6770847 4.95833563,35.0442685 4.5,35.5078125 C4.04166437,35.9713565 3.67708469,36.5130177 3.40625,37.1328125 C3.13541531,37.7526073 3,38.4062466 3,39.09375 C3,39.833337 3.15624844,40.5833295 3.46875,41.34375 C3.78125156,42.1041705 4.17708094,42.8515588 4.65625,43.5859375 C5.13541906,44.3203162 5.66145547,45.0286424 6.234375,45.7109375 C6.80729453,46.3932326 7.34895578,47.031247 7.859375,47.625 L8.125,47.921875 L8.1875,47.984375 C8.19791672,47.9739583 8.21093742,47.9635417 8.2265625,47.953125 C8.24218758,47.9427083 8.25,47.9322917 8.25,47.921875 Z M8.015625,36.015625 C8.8489625,36.015625 9.55728875,36.3098929 10.140625,36.8984375 C10.7239613,37.4869821 11.015625,38.1927042 11.015625,39.015625 C11.015625,39.8489625 10.7239613,40.5572887 10.140625,41.140625 C9.55728875,41.7239613 8.8489625,42.015625 8.015625,42.015625 C7.19270422,42.015625 6.48698211,41.7239613 5.8984375,41.140625 C5.30989289,40.5572887 5.015625,39.8489625 5.015625,39.015625 C5.015625,38.1927042 5.30989289,37.4869821 5.8984375,36.8984375 C6.48698211,36.3098929 7.19270422,36.015625 8.015625,36.015625 Z M8.015625,41.015625 C8.56771109,41.015625 9.03645641,40.8177103 9.421875,40.421875 C9.80729359,40.0260397 10,39.5520861 10,39 C10,38.4479139 9.80468945,37.9765645 9.4140625,37.5859375 C9.02343555,37.1953105 8.55208609,37 8,37 C7.44791391,37 6.97656445,37.1953105 6.5859375,37.5859375 C6.19531055,37.9765645 6,38.4479139 6,39 C6,39.5520861 6.19791469,40.0260397 6.59375,40.421875 C6.98958531,40.8177103 7.46353891,41.015625 8.015625,41.015625 Z" id="Location-pin---simple-line-icons"></path>
                </g>
            </g>
        </g>
    </g>
</svg>