<?xml version="1.0" encoding="UTF-8"?>
<svg width="16px" height="12px" viewBox="0 0 16 12" version="1.1" xmlns="http://www.w3.org/2000/svg" xmlns:xlink="http://www.w3.org/1999/xlink">
    <!-- Generator: Sketch 42 (36781) - http://www.bohemiancoding.com/sketch -->
    <title>Envelope - simple-line-icons</title>
    <desc>Created with Sketch.</desc>
    <defs></defs>
    <g id="site" stroke="none" stroke-width="1" fill="none" fill-rule="evenodd">
        <g id="01-main" transform="translate(-1130.000000, -3199.000000)" fill="#B4894B">
            <g id="footer" transform="translate(221.000000, 3102.000000)">
                <g id="Group-7" transform="translate(908.000000, 30.000000)">
                    <path d="M16.984375,68.625 C16.9947917,68.6458334 17,68.6666666 17,68.6875 L17,76.75 C17,77.1666687 16.8958344,77.5624981 16.6875,77.9375 C16.4791656,78.3125019 16.1666687,78.5 15.75,78.5 L2.75,78.5 C2.33333125,78.5 1.93750187,78.3125019 1.5625,77.9375 C1.18749812,77.5624981 1,77.1666687 1,76.75 L1,68.6875 C1,68.6666666 1.00520828,68.6458334 1.015625,68.625 C0.994791562,68.552083 0.994791562,68.4817712 1.015625,68.4140625 C1.03645844,68.3463538 1.07291641,68.2812503 1.125,68.21875 C1.13541672,68.2083333 1.14583328,68.1953126 1.15625,68.1796875 C1.16666672,68.1640624 1.18229156,68.1510417 1.203125,68.140625 C1.35937578,67.9322906 1.58072773,67.773438 1.8671875,67.6640625 C2.15364727,67.554687 2.44791516,67.5 2.75,67.5 L15.75,67.5 C16.083335,67.5 16.3515615,67.5703118 16.5546875,67.7109375 C16.7578135,67.8515632 16.8906247,68.0624986 16.953125,68.34375 C16.9739584,68.3854169 16.9869791,68.4296873 16.9921875,68.4765625 C16.9973959,68.5234377 16.9947917,68.5729164 16.984375,68.625 Z M2.515625,68.5 C2.43229125,68.5 2.34895875,68.5052083 2.265625,68.515625 L9,73.890625 L15.75,68.5 L2.515625,68.5 Z M15.75,77.5 C15.8854173,77.5 15.9609374,77.4088551 15.9765625,77.2265625 C15.9921876,77.0442699 16,76.8854173 16,76.75 L16,69.59375 L9.328125,74.921875 C9.27604141,74.9635419 9.22395859,74.9947916 9.171875,75.015625 C9.11979141,75.0364584 9.06250031,75.046875 9,75.046875 C8.93749969,75.046875 8.88020859,75.0364584 8.828125,75.015625 C8.77604141,74.9947916 8.72395859,74.9635419 8.671875,74.921875 L2,69.59375 L2,76.75 C2,76.8854173 2.09114492,77.0442699 2.2734375,77.2265625 C2.45573008,77.4088551 2.61458266,77.5 2.75,77.5 L15.75,77.5 Z" id="Envelope---simple-line-icons"></path>
                </g>
            </g>
        </g>
    </g>
</svg>