<?xml version="1.0" encoding="UTF-8"?>
<svg width="12px" height="16px" viewBox="0 0 12 16" version="1.1" xmlns="http://www.w3.org/2000/svg" xmlns:xlink="http://www.w3.org/1999/xlink">
    <!-- Generator: Sketch 42 (36781) - http://www.bohemiancoding.com/sketch -->
    <title></title>
    <desc>Created with Sketch.</desc>
    <defs></defs>
    <g id="site" stroke="none" stroke-width="1" fill="none" fill-rule="evenodd">
        <g id="01-main" transform="translate(-1132.000000, -3165.000000)" fill="#B4894B">
            <g id="footer" transform="translate(221.000000, 3102.000000)">
                <g id="Group-7" transform="translate(908.000000, 30.000000)">
                    <path d="M9.0625,33 C10.0000047,33 10.838538,33.1614567 11.578125,33.484375 C12.317712,33.8072933 12.9401016,34.247393 13.4453125,34.8046875 C13.9505234,35.361982 14.3359362,36.010413 14.6015625,36.75 C14.8671888,37.489587 15,38.2708292 15,39.09375 C15,39.9270875 14.8359391,40.7786415 14.5078125,41.6484375 C14.1796859,42.5182335 13.7656275,43.3723916 13.265625,44.2109375 C12.7656225,45.0494834 12.2239613,45.8437463 11.640625,46.59375 C11.0572887,47.3437537 10.5104192,48.0104137 10,48.59375 C10,48.6041667 9.92187578,48.6744785 9.765625,48.8046875 C9.60937422,48.9348965 9.42708437,49 9.21875,49 L9.171875,49 C8.95312391,49 8.76822992,48.9348965 8.6171875,48.8046875 C8.46614508,48.6744785 8.390625,48.6041667 8.390625,48.59375 C7.84895563,47.9687469 7.26302398,47.286462 6.6328125,46.546875 C6.00260102,45.807288 5.41927352,45.0286499 4.8828125,44.2109375 C4.34635148,43.3932251 3.8984393,42.5520877 3.5390625,41.6875 C3.1796857,40.8229123 3,39.9583377 3,39.09375 C3,38.2708292 3.16145672,37.489587 3.484375,36.75 C3.80729328,36.010413 4.24478891,35.361982 4.796875,34.8046875 C5.34896109,34.247393 5.99218383,33.8072933 6.7265625,33.484375 C7.46094117,33.1614567 8.23957922,33 9.0625,33 Z M9.25,47.921875 C10.0416706,47.0156205 10.734372,46.1510458 11.328125,45.328125 C11.921878,44.5052042 12.4166647,43.7265662 12.8125,42.9921875 C13.2083353,42.2578088 13.5052073,41.5651074 13.703125,40.9140625 C13.9010427,40.2630176 14,39.6562528 14,39.09375 C14,38.4583302 13.9036468,37.8359405 13.7109375,37.2265625 C13.5182282,36.6171845 13.218752,36.0729191 12.8125,35.59375 C12.406248,35.1145809 11.8932323,34.7291681 11.2734375,34.4375 C10.6536427,34.1458319 9.91667094,34 9.0625,34 C8.37499656,34 7.72396141,34.1354153 7.109375,34.40625 C6.49478859,34.6770847 5.95833563,35.0442685 5.5,35.5078125 C5.04166437,35.9713565 4.67708469,36.5130177 4.40625,37.1328125 C4.13541531,37.7526073 4,38.4062466 4,39.09375 C4,39.833337 4.15624844,40.5833295 4.46875,41.34375 C4.78125156,42.1041705 5.17708094,42.8515588 5.65625,43.5859375 C6.13541906,44.3203162 6.66145547,45.0286424 7.234375,45.7109375 C7.80729453,46.3932326 8.34895578,47.031247 8.859375,47.625 L9.125,47.921875 L9.1875,47.984375 C9.19791672,47.9739583 9.21093742,47.9635417 9.2265625,47.953125 C9.24218758,47.9427083 9.25,47.9322917 9.25,47.921875 Z M9.015625,36.015625 C9.8489625,36.015625 10.5572887,36.3098929 11.140625,36.8984375 C11.7239613,37.4869821 12.015625,38.1927042 12.015625,39.015625 C12.015625,39.8489625 11.7239613,40.5572887 11.140625,41.140625 C10.5572887,41.7239613 9.8489625,42.015625 9.015625,42.015625 C8.19270422,42.015625 7.48698211,41.7239613 6.8984375,41.140625 C6.30989289,40.5572887 6.015625,39.8489625 6.015625,39.015625 C6.015625,38.1927042 6.30989289,37.4869821 6.8984375,36.8984375 C7.48698211,36.3098929 8.19270422,36.015625 9.015625,36.015625 Z M9.015625,41.015625 C9.56771109,41.015625 10.0364564,40.8177103 10.421875,40.421875 C10.8072936,40.0260397 11,39.5520861 11,39 C11,38.4479139 10.8046895,37.9765645 10.4140625,37.5859375 C10.0234355,37.1953105 9.55208609,37 9,37 C8.44791391,37 7.97656445,37.1953105 7.5859375,37.5859375 C7.19531055,37.9765645 7,38.4479139 7,39 C7,39.5520861 7.19791469,40.0260397 7.59375,40.421875 C7.98958531,40.8177103 8.46353891,41.015625 9.015625,41.015625 Z" id=""></path>
                </g>
            </g>
        </g>
    </g>
</svg>