<?xml version="1.0" encoding="UTF-8"?>
<svg width="79px" height="20px" viewBox="0 0 79 20" version="1.1" xmlns="http://www.w3.org/2000/svg" xmlns:xlink="http://www.w3.org/1999/xlink">
    <!-- Generator: Sketch 42 (36781) - http://www.bohemiancoding.com/sketch -->
    <title>mo0n</title>
    <desc>Created with Sketch.</desc>
    <defs></defs>
    <g id="site" stroke="none" stroke-width="1" fill="none" fill-rule="evenodd">
        <g id="01-main" transform="translate(-275.000000, -3274.000000)" fill="#B4894B">
            <g id="footer" transform="translate(221.000000, 3102.000000)">
                <g id="mo0n" transform="translate(54.000000, 172.000000)">
                    <polygon id="Fill-10" points="74.6209986 1.00073518 74.6209986 11.6442461 61.8233816 0.150172543 61.8233816 18.4380945 65.2355079 18.4380945 65.2355079 7.79458365 78.0331249 19.2886572 78.0331249 1.00073518"></polygon>
                    <path d="M50.3114676,15.1632408 C47.2973349,15.1632408 44.8540209,12.7260315 44.8540209,9.71942986 C44.8540209,6.71282821 47.2973349,4.2756189 50.3114676,4.2756189 C53.3256002,4.2756189 55.7689143,6.71282821 55.7689143,9.71942986 C55.7689143,12.7260315 53.3256002,15.1632408 50.3114676,15.1632408 M50.3114676,0.787996999 C45.3664791,0.787996999 41.3578135,4.7867967 41.3578135,9.71942986 C41.3578135,14.652063 45.3664791,18.6507127 50.3114676,18.6507127 C55.2564561,18.6507127 59.2651216,14.652063 59.2651216,9.71942986 C59.2651216,4.7867967 55.2564561,0.787996999 50.3114676,0.787996999" id="Fill-3"></path>
                    <path d="M50.3114676,7.59293323 C49.1341825,7.59293323 48.1796595,8.54492123 48.1796595,9.71941485 C48.1796595,10.8937584 49.1341825,11.8458965 50.3114676,11.8458965 C51.4889031,11.8458965 52.4434261,10.8937584 52.4434261,9.71941485 C52.4434261,8.54492123 51.4889031,7.59293323 50.3114676,7.59293323" id="Fill-5"></path>
                    <path d="M29.8457792,15.1632408 C26.8316466,15.1632408 24.3883325,12.7260315 24.3883325,9.71942986 C24.3883325,6.71282821 26.8316466,4.2756189 29.8457792,4.2756189 C32.8599119,4.2756189 35.3033763,6.71282821 35.3033763,9.71942986 C35.3033763,12.7260315 32.8599119,15.1632408 29.8457792,15.1632408 M29.8457792,0.787996999 C24.9007907,0.787996999 20.8921252,4.7867967 20.8921252,9.71942986 C20.8921252,14.652063 24.9007907,18.6507127 29.8457792,18.6507127 C34.7907677,18.6507127 38.7995837,14.652063 38.7995837,9.71942986 C38.7995837,4.7867967 34.7907677,0.787996999 29.8457792,0.787996999" id="Fill-1"></path>
                    <polygon id="Fill-7" points="-3.0082665e-05 0.150112528 -3.0082665e-05 18.4381845 3.41209621 18.4381845 3.41209621 7.79452363 9.16691006 12.9633158 14.9218743 7.79452363 14.9218743 18.4381845 18.3338502 18.4381845 18.3338502 0.150112528 9.16691006 8.38342086"></polygon>
                </g>
            </g>
        </g>
    </g>
</svg>