<?xml version="1.0" encoding="UTF-8"?>
<svg width="16px" height="16px" viewBox="0 0 16 16" version="1.1" xmlns="http://www.w3.org/2000/svg" xmlns:xlink="http://www.w3.org/1999/xlink">
    <!-- Generator: Sketch 42 (36781) - http://www.bohemiancoding.com/sketch -->
    <title>Call-out - simple-line-icons</title>
    <desc>Created with Sketch.</desc>
    <defs></defs>
    <g id="site" stroke="none" stroke-width="1" fill="none" fill-rule="evenodd">
        <g id="01-main" transform="translate(-1130.000000, -3133.000000)" fill="#B4894B">
            <g id="footer" transform="translate(221.000000, 3102.000000)">
                <g id="Group-7" transform="translate(908.000000, 30.000000)">
                    <path d="M16.625,13.0625 C16.8333344,13.1979173 16.9609373,13.4192693 17.0078125,13.7265625 C17.0546877,14.0338557 16.9687511,14.3489567 16.75,14.671875 L16.46875,15.0390625 C16.2812491,15.2838554 16.0520847,15.5520819 15.78125,15.84375 C15.5104153,16.1354181 15.2213557,16.4036446 14.9140625,16.6484375 C14.6067693,16.8932304 14.3333345,17.015625 14.09375,17.015625 L14.078125,17.015625 C13.3906216,16.9947916 12.6822953,16.8281266 11.953125,16.515625 C11.2239547,16.2031234 10.5052119,15.8098982 9.796875,15.3359375 C9.08853812,14.8619768 8.40364914,14.3359404 7.7421875,13.7578125 C7.08072586,13.1796846 6.47396109,12.6145861 5.921875,12.0625 C5.36978891,11.5104139 4.80729453,10.9036491 4.234375,10.2421875 C3.66145547,9.58072586 3.1380232,8.89583688 2.6640625,8.1875 C2.1901018,7.47916312 1.79687656,6.76302445 1.484375,6.0390625 C1.17187344,5.31510055 1.00520844,4.61458672 0.984375,3.9375 C0.973958281,3.68749875 1.09114461,3.4088557 1.3359375,3.1015625 C1.58073039,2.7942693 1.84895687,2.50260555 2.140625,2.2265625 C2.43229312,1.95051945 2.70051961,1.71875094 2.9453125,1.53125 C3.19010539,1.34374906 3.31770828,1.24479172 3.328125,1.234375 C3.45312562,1.15104125 3.58333266,1.08854188 3.71875,1.046875 C3.85416734,1.00520813 3.98958266,0.984375 4.125,0.984375 C4.2916675,0.984375 4.44791594,1.01562469 4.59375,1.078125 C4.73958406,1.14062531 4.85416625,1.23437437 4.9375,1.359375 C4.97916687,1.42187531 5.10676977,1.61197758 5.3203125,1.9296875 C5.53385523,2.24739742 5.76301961,2.59114398 6.0078125,2.9609375 C6.25260539,3.33073102 6.48176977,3.67708172 6.6953125,4 C6.90885523,4.32291828 7.04166641,4.52604125 7.09375,4.609375 C7.18750047,4.76562578 7.22916672,4.95833219 7.21875,5.1875 C7.20833328,5.41666781 7.14062562,5.65624875 7.015625,5.90625 C6.94270797,6.03125063 6.81770922,6.24999844 6.640625,6.5625 C6.46354078,6.87500156 6.32291719,7.13020734 6.21875,7.328125 C6.33333391,7.4947925 6.55468586,7.77603969 6.8828125,8.171875 C7.21093914,8.56771031 7.68228859,9.07291359 8.296875,9.6875 C8.92187812,10.3125031 9.43228969,10.7890609 9.828125,11.1171875 C10.2239603,11.4453141 10.5052075,11.6666661 10.671875,11.78125 C10.8593759,11.6770828 11.1119776,11.5338551 11.4296875,11.3515625 C11.7473974,11.1692699 11.9687494,11.0468753 12.09375,10.984375 C12.2291673,10.911458 12.3619785,10.856771 12.4921875,10.8203125 C12.6223965,10.783854 12.7499994,10.765625 12.875,10.765625 C12.9687505,10.765625 13.0572912,10.7786457 13.140625,10.8046875 C13.2239587,10.8307293 13.302083,10.8645831 13.375,10.90625 C13.4583337,10.9583336 13.6640609,11.0911448 13.9921875,11.3046875 C14.3203141,11.5182302 14.669269,11.7473946 15.0390625,11.9921875 C15.408856,12.2369804 15.7499984,12.4635406 16.0625,12.671875 C16.3750016,12.8802094 16.5624997,13.0104164 16.625,13.0625 Z M15.9375,14.078125 C15.9791669,14.0260414 16.0026041,13.9791669 16.0078125,13.9375 C16.0130209,13.8958331 16.015625,13.8645834 16.015625,13.84375 C15.9114578,13.770833 15.7083348,13.6354177 15.40625,13.4375 C15.1041652,13.2395823 14.7812517,13.0260428 14.4375,12.796875 L12.890625,11.765625 L12.875,11.765625 C12.8541666,11.765625 12.8177086,11.7708333 12.765625,11.78125 C12.7135414,11.7916667 12.6458337,11.8229164 12.5625,11.875 C12.4583328,11.9270836 12.2656264,12.0312492 11.984375,12.1875 C11.7031236,12.3437508 11.432293,12.4999992 11.171875,12.65625 L10.609375,12.96875 L10.09375,12.59375 C9.90624906,12.4583327 9.60156461,12.2187517 9.1796875,11.875 C8.75781039,11.5312483 8.22916984,11.0416698 7.59375,10.40625 C6.95833016,9.76041344 6.46614758,9.22916875 6.1171875,8.8125 C5.76822742,8.39583125 5.52604234,8.08854266 5.390625,7.890625 L5.03125,7.375 L5.34375,6.828125 C5.54166766,6.47395656 5.7109368,6.17448039 5.8515625,5.9296875 C5.9921882,5.68489461 6.08333312,5.52083375 6.125,5.4375 C6.16666687,5.35416625 6.19270828,5.28385445 6.203125,5.2265625 C6.21354172,5.16927055 6.21875,5.13020844 6.21875,5.109375 C6.15624969,5.00520781 6.02604266,4.80208484 5.828125,4.5 C5.63020734,4.19791516 5.41927195,3.88021 5.1953125,3.546875 C4.97135305,3.21354 4.76041766,2.89583484 4.5625,2.59375 C4.36458234,2.29166516 4.22916703,2.09375047 4.15625,2 C4.15625,1.98958328 4.15104172,1.984375 4.140625,1.984375 L4.125,1.984375 C4.08333312,1.984375 4.04427102,1.99218742 4.0078125,2.0078125 C3.97135398,2.02343758 3.93750016,2.04166656 3.90625,2.0625 C3.46874781,2.37500156 3.05468945,2.72395641 2.6640625,3.109375 C2.27343555,3.49479359 2.04687531,3.77604078 1.984375,3.953125 C2.00520844,4.42187734 2.12239477,4.93489305 2.3359375,5.4921875 C2.54948023,6.04948195 2.85416469,6.64062188 3.25,7.265625 C3.64583531,7.89062812 4.12760133,8.54687156 4.6953125,9.234375 C5.26302367,9.92187844 5.90624641,10.6302047 6.625,11.359375 C7.35417031,12.0885453 8.0651007,12.7369763 8.7578125,13.3046875 C9.4505243,13.8723987 10.1093719,14.3515605 10.734375,14.7421875 C11.3593781,15.1328145 11.950518,15.4348948 12.5078125,15.6484375 C13.065107,15.8619802 13.5781227,15.9843748 14.046875,16.015625 C14.2239592,15.942708 14.5052064,15.7109395 14.890625,15.3203125 C15.2760436,14.9296855 15.6249984,14.5156272 15.9375,14.078125 Z M11.6875,6.96875 C11.5937495,7.07291719 11.4765632,7.125 11.3359375,7.125 C11.1953118,7.125 11.0781255,7.07291719 10.984375,6.96875 C10.8802078,6.87499953 10.828125,6.7578132 10.828125,6.6171875 C10.828125,6.4765618 10.8802078,6.35937547 10.984375,6.265625 L15.265625,2 L12.90625,2 C12.8020828,2 12.7083337,1.96875031 12.625,1.90625 C12.5416662,1.84374969 12.4947917,1.75000062 12.484375,1.625 L12.484375,1.375 C12.484375,1.27083281 12.520833,1.18229203 12.59375,1.109375 C12.666667,1.03645797 12.7552078,1 12.859375,1 L16.4375,1.015625 L16.453125,1.015625 L16.640625,1 C16.6822919,1 16.7265623,1.01041656 16.7734375,1.03125 C16.8203127,1.05208344 16.8593748,1.07812484 16.890625,1.109375 C16.9218752,1.14062516 16.9453124,1.17968727 16.9609375,1.2265625 C16.9765626,1.27343773 16.984375,1.31770812 16.984375,1.359375 L16.953125,1.546875 L16.96875,1.5625 L16.96875,5.171875 C16.9583333,5.26562547 16.916667,5.34114555 16.84375,5.3984375 C16.770833,5.45572945 16.6875005,5.48958328 16.59375,5.5 L16.328125,5.5 C16.2239578,5.5 16.1380212,5.46093789 16.0703125,5.3828125 C16.0026038,5.30468711 15.96875,5.21875047 15.96875,5.125 L15.984375,2.703125 L11.6875,6.96875 Z" id="Call-out---simple-line-icons"></path>
                </g>
            </g>
        </g>
    </g>
</svg>