<?xml version="1.0" encoding="UTF-8"?>
<svg width="21px" height="21px" viewBox="0 0 21 21" version="1.1" xmlns="http://www.w3.org/2000/svg" xmlns:xlink="http://www.w3.org/1999/xlink">
    <!-- Generator: Sketch 42 (36781) - http://www.bohemiancoding.com/sketch -->
    <title></title>
    <desc>Created with Sketch.</desc>
    <defs></defs>
    <g id="mobil" stroke="none" stroke-width="1" fill="none" fill-rule="evenodd">
        <g id="m-::-01-main" transform="translate(-279.000000, -20.000000)" fill="#B4894B">
            <g id="top">
                <path d="M299.824219,39.1757812 C299.941407,39.2929693 300,39.4394522 300,39.6152344 C300,39.7910165 299.941407,39.9374994 299.824219,40.0546875 C299.69401,40.1848965 299.544272,40.25 299.375,40.25 C299.205728,40.25 299.05599,40.1848965 298.925781,40.0546875 L292.871094,33.9609375 C292.180986,34.5598988 291.399744,35.0286441 290.527344,35.3671875 C289.654944,35.7057309 288.730474,35.875 287.753906,35.875 C286.673172,35.875 285.657557,35.6699239 284.707031,35.2597656 C283.756506,34.8496073 282.926436,34.2929723 282.216797,33.5898438 C281.507158,32.8867152 280.950523,32.0599006 280.546875,31.109375 C280.143227,30.1588494 279.941406,29.1432346 279.941406,28.0625 C279.941406,26.9817654 280.143227,25.9661506 280.546875,25.015625 C280.950523,24.0650994 281.507158,23.2382848 282.216797,22.5351562 C282.926436,21.8320277 283.756506,21.2753927 284.707031,20.8652344 C285.657557,20.4550761 286.673172,20.25 287.753906,20.25 C288.82162,20.25 289.830724,20.4550761 290.78125,20.8652344 C291.731776,21.2753927 292.561845,21.8320277 293.271484,22.5351562 C293.981123,23.2382848 294.541014,24.0650994 294.951172,25.015625 C295.36133,25.9661506 295.566406,26.9817654 295.566406,28.0625 C295.566406,29.0130256 295.403647,29.9147093 295.078125,30.7675781 C294.752603,31.620447 294.309899,32.3854133 293.75,33.0625 L299.824219,39.1757812 Z M287.753906,34.6445312 C288.652348,34.6445312 289.501949,34.4720069 290.302734,34.1269531 C291.10352,33.7818993 291.800127,33.3098988 292.392578,32.7109375 C292.985029,32.1119762 293.453774,31.4153686 293.798828,30.6210938 C294.143882,29.8268189 294.316406,28.9739629 294.316406,28.0625 C294.316406,27.1510371 294.143882,26.2981811 293.798828,25.5039062 C293.453774,24.7096314 292.985029,24.0130238 292.392578,23.4140625 C291.800127,22.8151012 291.10352,22.3431007 290.302734,21.9980469 C289.501949,21.6529931 288.652348,21.4804688 287.753906,21.4804688 C286.842443,21.4804688 285.986332,21.6529931 285.185547,21.9980469 C284.384762,22.3431007 283.688154,22.8151012 283.095703,23.4140625 C282.503252,24.0130238 282.034507,24.7096314 281.689453,25.5039062 C281.344399,26.2981811 281.171875,27.1510371 281.171875,28.0625 C281.171875,28.9739629 281.344399,29.8268189 281.689453,30.6210938 C282.034507,31.4153686 282.503252,32.1119762 283.095703,32.7109375 C283.688154,33.3098988 284.384762,33.7818993 285.185547,34.1269531 C285.986332,34.4720069 286.842443,34.6445312 287.753906,34.6445312 Z" id=""></path>
            </g>
        </g>
    </g>
</svg>