<?xml version="1.0" encoding="UTF-8"?>
<svg width="21px" height="21px" viewBox="0 0 21 21" version="1.1" xmlns="http://www.w3.org/2000/svg" xmlns:xlink="http://www.w3.org/1999/xlink">
    <!-- Generator: Sketch 42 (36781) - http://www.bohemiancoding.com/sketch -->
    <title></title>
    <desc>Created with Sketch.</desc>
    <defs></defs>
    <g id="site" stroke="none" stroke-width="1" fill="none" fill-rule="evenodd">
        <g id="01-main" transform="translate(-1406.000000, -13.000000)" fill="#FFFFFF">
            <g id="search" transform="translate(1394.000000, 0.000000)">
                <path d="M32.8242188,32.1757812 C32.9414068,32.2929693 33,32.4394522 33,32.6152344 C33,32.7910165 32.9414068,32.9374994 32.8242188,33.0546875 C32.6940098,33.1848965 32.5442717,33.25 32.375,33.25 C32.2057283,33.25 32.0559902,33.1848965 31.9257812,33.0546875 L25.8710938,26.9609375 C25.1809861,27.5598988 24.3997439,28.0286441 23.5273438,28.3671875 C22.6549436,28.7057309 21.7304736,28.875 20.7539062,28.875 C19.6731717,28.875 18.6575568,28.6699239 17.7070312,28.2597656 C16.7565057,27.8496073 15.9264358,27.2929723 15.2167969,26.5898438 C14.5071579,25.8867152 13.9505229,25.0599006 13.546875,24.109375 C13.1432271,23.1588494 12.9414062,22.1432346 12.9414062,21.0625 C12.9414062,19.9817654 13.1432271,18.9661506 13.546875,18.015625 C13.9505229,17.0650994 14.5071579,16.2382848 15.2167969,15.5351562 C15.9264358,14.8320277 16.7565057,14.2753927 17.7070312,13.8652344 C18.6575568,13.4550761 19.6731717,13.25 20.7539062,13.25 C21.8216199,13.25 22.8307244,13.4550761 23.78125,13.8652344 C24.7317756,14.2753927 25.5618454,14.8320277 26.2714844,15.5351562 C26.9811233,16.2382848 27.5410136,17.0650994 27.9511719,18.015625 C28.3613302,18.9661506 28.5664062,19.9817654 28.5664062,21.0625 C28.5664062,22.0130256 28.4036475,22.9147093 28.078125,23.7675781 C27.7526025,24.620447 27.3098986,25.3854133 26.75,26.0625 L32.8242188,32.1757812 Z M20.7539062,27.6445312 C21.6523482,27.6445312 22.5019491,27.4720069 23.3027344,27.1269531 C24.1035196,26.7818993 24.8001272,26.3098988 25.3925781,25.7109375 C25.985029,25.1119762 26.4537743,24.4153686 26.7988281,23.6210938 C27.1438819,22.8268189 27.3164062,21.9739629 27.3164062,21.0625 C27.3164062,20.1510371 27.1438819,19.2981811 26.7988281,18.5039062 C26.4537743,17.7096314 25.985029,17.0130238 25.3925781,16.4140625 C24.8001272,15.8151012 24.1035196,15.3431007 23.3027344,14.9980469 C22.5019491,14.6529931 21.6523482,14.4804688 20.7539062,14.4804688 C19.8424434,14.4804688 18.9863321,14.6529931 18.1855469,14.9980469 C17.3847616,15.3431007 16.688154,15.8151012 16.0957031,16.4140625 C15.5032522,17.0130238 15.0345069,17.7096314 14.6894531,18.5039062 C14.3443993,19.2981811 14.171875,20.1510371 14.171875,21.0625 C14.171875,21.9739629 14.3443993,22.8268189 14.6894531,23.6210938 C15.0345069,24.4153686 15.5032522,25.1119762 16.0957031,25.7109375 C16.688154,26.3098988 17.3847616,26.7818993 18.1855469,27.1269531 C18.9863321,27.4720069 19.8424434,27.6445312 20.7539062,27.6445312 Z" id=""></path>
            </g>
        </g>
    </g>
</svg>