<?xml version="1.0" encoding="UTF-8"?>
<svg width="40px" height="40px" viewBox="0 0 40 40" version="1.1" xmlns="http://www.w3.org/2000/svg" xmlns:xlink="http://www.w3.org/1999/xlink">
    <!-- Generator: Sketch 42 (36781) - http://www.bohemiancoding.com/sketch -->
    <title>Group Copy</title>
    <desc>Created with Sketch.</desc>
    <defs>
        <rect id="path-1" x="0" y="0" width="40" height="40" rx="20"></rect>
        <mask id="mask-2" maskContentUnits="userSpaceOnUse" maskUnits="objectBoundingBox" x="0" y="0" width="40" height="40" fill="white">
            <use xlink:href="#path-1"></use>
        </mask>
    </defs>
    <g id="site" stroke="none" stroke-width="1" fill="none" fill-rule="evenodd">
        <g id="01-main" transform="translate(-1235.000000, -3264.000000)">
            <g id="footer" transform="translate(221.000000, 3102.000000)">
                <g id="Group-Copy" transform="translate(1014.000000, 162.000000)">
                    <path d="M29.0803571,15.4107143 C28.5818427,16.1398846 27.9791702,16.7611581 27.2723214,17.2745536 C27.2797619,17.3787208 27.2834821,17.5349692 27.2834821,17.7433036 C27.2834821,18.7105703 27.1421145,19.6759624 26.859375,20.6395089 C26.5766355,21.6030554 26.1469523,22.5275253 25.5703125,23.4129464 C24.9936727,24.2983675 24.3072956,25.0814698 23.5111607,25.7622768 C22.7150258,26.4430838 21.755214,26.9862331 20.6316964,27.3917411 C19.5081789,27.7972491 18.306554,28 17.0267857,28 C15.0104066,28 13.1651869,27.4605709 11.4910714,26.3816964 C11.7514894,26.4114585 12.0416651,26.4263393 12.3616071,26.4263393 C14.0357227,26.4263393 15.5275232,25.9129516 16.8370536,24.8861607 C16.0557997,24.8712797 15.3564019,24.6313267 14.7388393,24.1662946 C14.1212767,23.7012626 13.6971738,23.1078905 13.4665179,22.3861607 C13.7120548,22.4233633 13.9389871,22.4419643 14.1473214,22.4419643 C14.4672635,22.4419643 14.7834806,22.4010421 15.0959821,22.3191964 C14.2626446,22.1480646 13.5725474,21.7332622 13.0256696,21.0747768 C12.4787919,20.4162914 12.2053571,19.6517901 12.2053571,18.78125 L12.2053571,18.7366071 C12.7113121,19.0193467 13.2544614,19.1718749 13.8348214,19.1941964 C13.3437475,18.8668138 12.9531265,18.4389907 12.6629464,17.9107143 C12.3727664,17.3824378 12.2276786,16.8095269 12.2276786,16.1919643 C12.2276786,15.5371991 12.3913674,14.9308064 12.71875,14.3727679 C13.6190521,15.4814044 14.7146513,16.3686723 16.0055804,17.0345982 C17.2965094,17.7005242 18.6785641,18.0706842 20.1517857,18.1450893 C20.0922616,17.8623498 20.0625,17.5870549 20.0625,17.3191964 C20.0625,16.3221676 20.414059,15.4721017 21.1171875,14.7689732 C21.820316,14.0658447 22.6703819,13.7142857 23.6674107,13.7142857 C24.7090826,13.7142857 25.58705,14.0937462 26.3013393,14.8526786 C27.1123552,14.6964278 27.8749964,14.4062521 28.5892857,13.9821429 C28.3139867,14.8378019 27.7857182,15.4999977 27.0044643,15.96875 C27.696432,15.8943449 28.3883894,15.7083348 29.0803571,15.4107143 Z" id="twitter---FontAwesome" fill="#B4894B"></path>
                    <use id="Rectangle-5-Copy-2" stroke="#B4894B" mask="url(#mask-2)" stroke-width="2" xlink:href="#path-1"></use>
                </g>
            </g>
        </g>
    </g>
</svg>