<?xml version="1.0" encoding="UTF-8"?>
<svg width="40px" height="40px" viewBox="0 0 40 40" version="1.1" xmlns="http://www.w3.org/2000/svg" xmlns:xlink="http://www.w3.org/1999/xlink">
    <!-- Generator: Sketch 42 (36781) - http://www.bohemiancoding.com/sketch -->
    <title>Group 2</title>
    <desc>Created with Sketch.</desc>
    <defs>
        <rect id="path-1" x="0" y="0" width="40" height="40" rx="20"></rect>
        <mask id="mask-2" maskContentUnits="userSpaceOnUse" maskUnits="objectBoundingBox" x="0" y="0" width="40" height="40" fill="white">
            <use xlink:href="#path-1"></use>
        </mask>
    </defs>
    <g id="site" stroke="none" stroke-width="1" fill="none" fill-rule="evenodd">
        <g id="01-main" transform="translate(-1345.000000, -3264.000000)">
            <g id="footer" transform="translate(221.000000, 3102.000000)">
                <g id="Group-2" transform="translate(1124.000000, 162.000000)">
                    <path d="M18.1417411,22.9017857 L23.0033482,20.390625 L18.1417411,17.8493304 L18.1417411,22.9017857 Z M20,14.2433036 C21.1250056,14.2433036 22.2114903,14.2583704 23.2594866,14.2885045 C24.3074829,14.3186385 25.0758904,14.3504463 25.5647321,14.3839286 L26.2979911,14.4241071 C26.3046875,14.4241071 26.3616066,14.4291294 26.46875,14.4391741 C26.5758934,14.4492188 26.6529016,14.4592633 26.6997768,14.469308 C26.746652,14.4793527 26.8253343,14.4944195 26.9358259,14.5145089 C27.0463175,14.5345983 27.1417407,14.5613838 27.2220982,14.5948661 C27.3024558,14.6283484 27.3962048,14.6718747 27.5033482,14.7254464 C27.6104916,14.7790181 27.7142852,14.8443077 27.8147321,14.921317 C27.9151791,14.9983263 28.0122763,15.0870531 28.1060268,15.1875 C28.1462056,15.2276788 28.1981024,15.2896201 28.2617188,15.3733259 C28.3253351,15.4570317 28.4224324,15.6529002 28.5530134,15.9609375 C28.6835944,16.2689748 28.7723212,16.607141 28.8191964,16.9754464 C28.8727681,17.40402 28.9146204,17.8610467 28.9447545,18.3465402 C28.9748885,18.8320337 28.9933035,19.2120522 29,19.4866071 L29,21.2544643 C29.0066965,22.2254513 28.9464292,23.1964237 28.8191964,24.1674107 C28.7723212,24.5357161 28.6886167,24.8688601 28.5680804,25.1668527 C28.447544,25.4648452 28.3404023,25.6707584 28.2466518,25.7845982 L28.1060268,25.9553571 C28.0122763,26.0558041 27.9151791,26.1445309 27.8147321,26.2215402 C27.7142852,26.2985495 27.6104916,26.3621649 27.5033482,26.4123884 C27.3962048,26.4626119 27.3024558,26.5044641 27.2220982,26.5379464 C27.1417407,26.5714287 27.0463175,26.5982142 26.9358259,26.6183036 C26.8253343,26.638393 26.7449779,26.6534598 26.6947545,26.6635045 C26.644531,26.6735492 26.5675228,26.6835937 26.4637277,26.6936384 C26.3599325,26.7036831 26.3046875,26.7087054 26.2979911,26.7087054 C24.6171791,26.8359381 22.5178697,26.8995536 20,26.8995536 C18.6138324,26.8861606 17.4101614,26.8643975 16.3889509,26.8342634 C15.3677404,26.8041293 14.6964302,26.779018 14.375,26.7589286 L13.8828125,26.71875 L13.5212054,26.6785714 C13.2801327,26.6450891 13.0976569,26.6116073 12.9737723,26.578125 C12.8498878,26.5446427 12.6791306,26.4743309 12.4614955,26.3671875 C12.2438605,26.2600441 12.0546883,26.1227687 11.8939732,25.9553571 C11.8537944,25.9151784 11.8018976,25.853237 11.7382812,25.7695312 C11.6746649,25.6858255 11.5775676,25.4899569 11.4469866,25.1819196 C11.3164056,24.8738824 11.2276788,24.5357161 11.1808036,24.1674107 C11.1272319,23.7388371 11.0853796,23.2818105 11.0552455,22.796317 C11.0251115,22.3108235 11.0066965,21.9308049 11,21.65625 L11,19.8883929 C10.9933035,18.9174059 11.0535708,17.9464334 11.1808036,16.9754464 C11.2276788,16.607141 11.3113833,16.273997 11.4319196,15.9760045 C11.552456,15.6780119 11.6595977,15.4720988 11.7533482,15.3582589 L11.8939732,15.1875 C11.9877237,15.0870531 12.0848209,14.9983263 12.1852679,14.921317 C12.2857148,14.8443077 12.3895084,14.7790181 12.4966518,14.7254464 C12.6037952,14.6718747 12.6975442,14.6283484 12.7779018,14.5948661 C12.8582593,14.5613838 12.9536825,14.5345983 13.0641741,14.5145089 C13.1746657,14.4944195 13.253348,14.4793527 13.3002232,14.469308 C13.3470984,14.4592633 13.4241066,14.4492188 13.53125,14.4391741 C13.6383934,14.4291294 13.6953125,14.4241071 13.7020089,14.4241071 C15.3828209,14.3035708 17.4821303,14.2433036 20,14.2433036 Z" id="youtube-play---FontAwesome" fill="#B4894B"></path>
                    <use id="Rectangle-5-Copy-5" stroke="#B4894B" mask="url(#mask-2)" stroke-width="2" xlink:href="#path-1"></use>
                </g>
            </g>
        </g>
    </g>
</svg>